<?xml version="1.0" encoding="UTF-8"?>
<svg id="Layer_1" xmlns="http://www.w3.org/2000/svg" version="1.1" viewBox="0 0 363.51 363.51">
  <!-- Generator: Adobe Illustrator 29.8.3, SVG Export Plug-In . SVG Version: 2.1.1 Build 3)  -->
  <defs>
    <style>
      .st0 {
        fill: #231f20;
      }
    </style>
  </defs>
  <path class="st0" d="M206.84,286.76v36.73c59.39-10.44,106.24-57.27,116.68-116.65h-36.81c-9.4,39.46-40.4,70.53-79.87,79.93M40,206.84c10.44,59.39,57.28,106.21,116.68,116.65v-36.73c-39.47-9.39-70.47-40.47-79.87-79.93h-36.81ZM156.68,76.75v-36.72c-59.39,10.44-106.24,57.26-116.68,116.65h36.81c9.4-39.46,40.4-70.53,79.87-79.93M323.52,156.68c-10.44-59.39-57.29-106.21-116.68-116.65v36.73c39.47,9.39,70.47,40.47,79.87,79.93h36.81Z"/>
</svg>