<?xml version="1.0" encoding="UTF-8"?>
<svg id="Layer_1" xmlns="http://www.w3.org/2000/svg" version="1.1" viewBox="0 0 363.51 363.51">
  <!-- Generator: Adobe Illustrator 29.8.3, SVG Export Plug-In . SVG Version: 2.1.1 Build 3)  -->
  <defs>
    <style>
      .st0 {
        fill: #231f20;
      }
    </style>
  </defs>
  <path class="st0" d="M206.84,249.15v74.34c59.39-10.44,106.24-57.27,116.68-116.65h-74.34c-7.29,19.52-22.79,35.04-42.34,42.32M40,206.84c10.44,59.39,57.28,106.21,116.68,116.65v-74.34c-19.55-7.28-35.05-22.79-42.34-42.32H40ZM156.68,114.36V40.03c-59.39,10.44-106.24,57.26-116.68,116.65h74.34c7.29-19.52,22.79-35.04,42.34-42.32M323.52,156.68c-10.44-59.39-57.29-106.21-116.68-116.65v74.34c19.54,7.28,35.05,22.79,42.34,42.32h74.34Z"/>
</svg>