<?xml version="1.0" encoding="UTF-8"?>
<svg id="Layer_1" xmlns="http://www.w3.org/2000/svg" version="1.1" viewBox="0 0 363.51 363.51">
  <!-- Generator: Adobe Illustrator 29.8.3, SVG Export Plug-In . SVG Version: 2.1.1 Build 3)  -->
  <defs>
    <style>
      .st0 {
        fill: #231f20;
      }
    </style>
  </defs>
  <path class="st0" d="M194.15,287.75v35.74c68.69-5.93,123.41-60.65,129.35-129.34h-35.76c-5.68,49.03-44.56,87.92-93.59,93.59M40.01,194.15c5.93,68.69,60.65,123.4,129.35,129.34v-35.74c-49.03-5.68-87.91-44.56-93.59-93.59h-35.76ZM169.35,75.77v-35.74c-68.69,5.93-123.41,60.64-129.34,129.33h35.76c5.68-49.03,44.56-87.92,93.59-93.59M323.49,169.36c-5.93-68.69-60.65-123.4-129.34-129.33v35.74c49.03,5.68,87.91,44.56,93.59,93.59h35.76-.01Z"/>
</svg>