<?xml version="1.0" encoding="UTF-8"?>
<svg id="Layer_1" xmlns="http://www.w3.org/2000/svg" version="1.1" viewBox="0 0 363.51 363.51">
  <!-- Generator: Adobe Illustrator 29.8.3, SVG Export Plug-In . SVG Version: 2.1.1 Build 3)  -->
  <defs>
    <style>
      .st0 {
        fill: #231f20;
      }
    </style>
  </defs>
  <path class="st0" d="M323.52,156.67c-3.71-21.07-12.01-40.55-23.82-57.39l-52.61,52.61c.73,1.58,1.48,3.15,2.09,4.78h74.34ZM247.09,211.61l52.61,52.61c11.81-16.85,20.11-36.32,23.82-57.4h-74.34c-.61,1.64-1.36,3.2-2.09,4.78M211.61,247.07c-1.58.72-3.14,1.47-4.77,2.08v74.34c21.07-3.7,40.54-12,57.39-23.8l-52.62-52.62h0ZM99.3,299.68c16.84,11.8,36.32,20.1,57.38,23.8v-74.34c-1.63-.61-3.2-1.36-4.77-2.08l-52.61,52.61h0ZM114.34,206.83H40c3.7,21.07,12.01,40.55,23.82,57.4l52.61-52.61c-.73-1.58-1.48-3.15-2.09-4.78M116.43,151.89l-52.61-52.61c-11.81,16.84-20.11,36.32-23.82,57.39h74.34c.61-1.64,1.36-3.2,2.09-4.78M151.91,116.43c1.57-.72,3.13-1.47,4.77-2.08V40.02c-21.07,3.7-40.54,12-57.38,23.8l52.62,52.62h0ZM264.22,63.82c-16.84-11.8-36.31-20.1-57.38-23.8v74.33c1.63.61,3.2,1.36,4.77,2.08l52.62-52.62h0Z"/>
</svg>