<?xml version="1.0" encoding="UTF-8"?>
<svg id="Layer_1" xmlns="http://www.w3.org/2000/svg" version="1.1" viewBox="0 0 363.51 363.51">
  <!-- Generator: Adobe Illustrator 29.8.3, SVG Export Plug-In . SVG Version: 2.1.1 Build 3)  -->
  <defs>
    <style>
      .st0 {
        fill: #231f20;
      }
    </style>
  </defs>
  <path class="st0" d="M323.52,156.68c-3.71-21.07-12.01-40.55-23.82-57.39l-26.04,26.04c5.89,9.58,10.37,20.11,13.05,31.35h36.81ZM286.71,206.84c-2.68,11.25-7.17,21.78-13.05,31.35l26.04,26.04c11.81-16.85,20.11-36.32,23.82-57.4h-36.81ZM238.22,273.68c-9.58,5.9-20.12,10.4-31.38,13.08v36.73c21.07-3.7,40.54-12,57.39-23.8l-26.01-26.01h0ZM99.3,299.69c16.84,11.8,36.32,20.1,57.38,23.8v-36.73c-11.26-2.68-21.8-7.18-31.38-13.08l-26.01,26.01h0ZM76.81,206.84h-36.81c3.71,21.07,12.01,40.55,23.82,57.4l26.04-26.04c-5.89-9.58-10.37-20.11-13.05-31.35M76.81,156.68c2.68-11.25,7.17-21.78,13.05-31.35l-26.04-26.04c-11.81,16.84-20.11,36.32-23.82,57.39,0,0,36.81,0,36.81,0ZM125.3,89.83c9.58-5.9,20.12-10.4,31.38-13.08v-36.72c-21.07,3.7-40.54,12-57.38,23.8l26.01,26.01h0ZM264.22,63.83c-16.84-11.8-36.31-20.1-57.38-23.8v36.72c11.26,2.68,21.8,7.18,31.38,13.08l26.01-26.01h0Z"/>
</svg>