<?xml version="1.0" encoding="UTF-8"?>
<svg id="Layer_1" xmlns="http://www.w3.org/2000/svg" version="1.1" viewBox="0 0 363.51 363.51">
  <!-- Generator: Adobe Illustrator 29.8.3, SVG Export Plug-In . SVG Version: 2.1.1 Build 3)  -->
  <defs>
    <style>
      .st0 {
        fill: #231f20;
      }
    </style>
  </defs>
  <path class="st0" d="M240.03,222.49l50.7,50.7c18.28-21.76,30.17-49.08,32.76-79.05h-71.72c-1.84,10.4-5.92,20.02-11.75,28.35M222.5,240.02c-8.32,5.83-17.95,9.91-28.35,11.75v71.72c29.98-2.59,57.29-14.48,79.05-32.76l-50.7-50.7h0ZM141.03,240.01l-50.7,50.7c21.76,18.27,49.06,30.16,79.04,32.75v-71.72c-10.4-1.83-20.02-5.92-28.34-11.73M40.03,194.14c2.59,29.98,14.47,57.3,32.76,79.05l50.7-50.7c-5.84-8.31-9.91-17.94-11.75-28.35H40.03ZM123.49,141.01l-50.7-50.7c-18.28,21.76-30.17,49.07-32.76,79.05h71.72c1.84-10.4,5.92-20.02,11.75-28.35M141.02,123.48c8.32-5.83,17.95-9.91,28.35-11.75V40.02c-29.98,2.59-57.29,14.48-79.05,32.76,0,0,50.7,50.7,50.7,50.7ZM222.49,123.49l50.7-50.7c-21.76-18.27-49.07-30.16-79.04-32.74v71.72c10.4,1.83,20.02,5.92,28.34,11.73M323.49,169.36c-2.59-29.98-14.47-57.3-32.76-79.05l-50.7,50.7c5.84,8.31,9.91,17.94,11.75,28.35h71.71Z"/>
</svg>