<?xml version="1.0" encoding="UTF-8"?>
<svg id="Layer_1" xmlns="http://www.w3.org/2000/svg" version="1.1" viewBox="0 0 363.51 363.51">
  <!-- Generator: Adobe Illustrator 29.8.3, SVG Export Plug-In . SVG Version: 2.1.1 Build 3)  -->
  <defs>
    <style>
      .st0 {
        fill: #231f20;
      }
    </style>
  </defs>
  <path class="st0" d="M265.38,247.86l25.33,25.34c18.27-21.76,30.15-49.07,32.74-79.04h-35.74c-2.34,20.17-10.36,38.58-22.34,53.71M247.85,265.38c-15.13,11.98-33.53,20-53.71,22.34v35.75c29.97-2.59,57.29-14.47,79.04-32.75l-25.34-25.34h0ZM115.59,265.44l-25.29,25.29c21.76,18.29,49.07,30.17,79.05,32.76v-35.83c-20.17-2.34-38.64-10.24-53.76-22.22M75.78,194.15h-35.73c2.59,29.97,14.48,57.27,32.75,79.04l25.27-25.27c-11.98-15.14-19.95-33.59-22.28-53.77M72.79,90.33c-18.27,21.75-30.15,49.06-32.74,79.04h35.74c2.33-20.18,10.36-38.58,22.34-53.71l-25.33-25.33h0ZM115.65,98.14c15.13-11.98,33.53-20,53.71-22.34v-35.75c-29.97,2.59-57.29,14.47-79.04,32.75l25.34,25.34h-.01ZM247.91,98.08l25.29-25.29c-21.76-18.29-49.08-30.17-79.06-32.76v35.83c20.17,2.34,38.64,10.24,53.76,22.22M287.72,169.37h35.74c-2.59-29.97-14.48-57.27-32.75-79.04l-25.27,25.27c11.98,15.14,19.94,33.59,22.28,53.77"/>
</svg>