<?xml version="1.0" encoding="UTF-8"?>
<svg id="Layer_1" xmlns="http://www.w3.org/2000/svg" version="1.1" viewBox="0 0 363.51 363.51">
  <!-- Generator: Adobe Illustrator 29.8.3, SVG Export Plug-In . SVG Version: 2.1.1 Build 3)  -->
  <defs>
    <style>
      .st0 {
        fill: #231f20;
      }
    </style>
  </defs>
  <path class="st0" d="M206.84,242.3v81.18c21.07-3.7,40.54-12,57.39-23.8l-57.39-57.39h0ZM156.68,242.3l-57.39,57.39c16.84,11.8,36.32,20.09,57.39,23.8v-81.18h0ZM121.21,206.83H40c3.7,21.07,12.01,40.55,23.82,57.4l57.39-57.4ZM63.82,99.28c-11.81,16.84-20.11,36.32-23.82,57.39h81.21l-57.39-57.39ZM156.68,121.2V40.02c-21.07,3.7-40.54,12-57.39,23.8l57.39,57.39h0ZM206.84,121.2l57.39-57.39c-16.85-11.79-36.33-20.09-57.39-23.79v81.18ZM242.31,156.67h81.21c-3.7-21.07-12.01-40.55-23.82-57.39l-57.39,57.39h0ZM299.7,264.22c11.81-16.84,20.11-36.32,23.82-57.4h-81.21l57.39,57.4h0Z"/>
</svg>