<?xml version="1.0" encoding="UTF-8"?>
<svg id="Layer_1" xmlns="http://www.w3.org/2000/svg" version="1.1" viewBox="0 0 363.51 363.51">
  <!-- Generator: Adobe Illustrator 29.8.3, SVG Export Plug-In . SVG Version: 2.1.1 Build 3)  -->
  <defs>
    <style>
      .st0 {
        fill: #231f20;
      }
    </style>
  </defs>
  <path class="st0" d="M194.15,251.76v71.73c68.69-5.93,123.41-60.65,129.35-129.34h-71.69c-5.16,29.34-28.31,52.44-57.66,57.61M40.01,194.15c5.93,68.69,60.65,123.4,129.35,129.34v-71.73c-29.35-5.16-52.5-28.27-57.66-57.61H40.01ZM169.35,111.76V40.03c-68.69,5.93-123.41,60.64-129.34,129.33h71.69c5.16-29.34,28.31-52.44,57.66-57.61M323.49,169.36c-5.93-68.69-60.65-123.4-129.34-129.33v71.73c29.35,5.17,52.49,28.27,57.66,57.61h71.69-.01Z"/>
</svg>