<?xml version="1.0" encoding="UTF-8"?>
<svg id="Layer_1" xmlns="http://www.w3.org/2000/svg" version="1.1" viewBox="0 0 363.51 363.51">
  <!-- Generator: Adobe Illustrator 29.8.3, SVG Export Plug-In . SVG Version: 2.1.1 Build 3)  -->
  <defs>
    <style>
      .st0 {
        fill: #231f20;
      }
    </style>
  </defs>
  <path class="st0" d="M211.68,194.15l79.05,79.05c18.28-21.76,30.17-49.08,32.76-79.05h-111.81ZM273.21,290.73l-79.05-79.05v111.81c29.98-2.59,57.29-14.48,79.05-32.76M169.37,207.08l-81.5,81.5c22.15,19.47,50.38,32.19,81.5,34.88v-116.38h0ZM40.03,194.15c2.49,28.83,13.6,55.18,30.72,76.51l76.51-76.51H40.03ZM151.84,169.37l-79.04-79.05c-18.29,21.76-30.18,49.07-32.77,79.05h111.81ZM90.32,72.79l79.05,79.05V40.03c-29.97,2.59-57.28,14.48-79.05,32.76M194.16,147.24l76.5-76.5c-21.33-17.09-47.68-28.19-76.5-30.68v107.19h0ZM323.49,169.37c-2.69-31.12-15.41-59.36-34.9-81.5l-81.5,81.5h116.4Z"/>
</svg>