<?xml version="1.0" encoding="UTF-8"?>
<svg id="Layer_1" xmlns="http://www.w3.org/2000/svg" version="1.1" viewBox="0 0 363.51 363.51">
  <!-- Generator: Adobe Illustrator 29.8.3, SVG Export Plug-In . SVG Version: 2.1.1 Build 3)  -->
  <path d="M156.22,60.93c0-7.18-.82-14.17-2.33-20.9-57.41,11.22-102.64,56.45-113.87,113.86,6.73,1.51,13.72,2.33,20.9,2.33,52.63,0,95.29-42.66,95.29-95.29"/>
  <path d="M153.89,323.49c1.51-6.73,2.33-13.72,2.33-20.9,0-52.63-42.66-95.29-95.29-95.29-7.19,0-14.17.82-20.9,2.33,11.22,57.41,56.45,102.64,113.86,113.87"/>
  <path d="M302.59,207.3c-52.63,0-95.29,42.66-95.29,95.29,0,7.19.82,14.17,2.33,20.9,57.41-11.23,102.64-56.45,113.86-113.87-6.73-1.51-13.72-2.33-20.9-2.33"/>
  <path d="M209.63,40.03c-1.51,6.73-2.33,13.72-2.33,20.9,0,52.63,42.66,95.29,95.29,95.29,7.19,0,14.17-.82,20.9-2.33-11.22-57.41-56.45-102.64-113.86-113.86"/>
</svg>