<?xml version="1.0" encoding="UTF-8"?>
<svg id="Layer_1" xmlns="http://www.w3.org/2000/svg" version="1.1" viewBox="0 0 363.51 363.51">
  <!-- Generator: Adobe Illustrator 29.8.3, SVG Export Plug-In . SVG Version: 2.1.1 Build 3)  -->
  <path d="M262.27,61.84c-.55-.37-1.08-.77-1.64-1.13-1.4-.92-2.83-1.77-4.26-2.64-1.64-.99-3.28-1.98-4.95-2.9-1.47-.81-2.97-1.56-4.47-2.32-1.67-.85-3.33-1.69-5.03-2.47-1.61-.74-3.24-1.4-4.87-2.08-1.63-.68-3.26-1.36-4.92-1.98-1.76-.65-3.53-1.23-5.3-1.81-1.6-.53-3.19-1.06-4.81-1.52-1.84-.53-3.69-.99-5.54-1.45-2.25-.55-4.5-1.12-6.82-1.52,0,0,0,0-.02,0-1.49,6.7-2.31,13.67-2.31,20.82v.42c.09,21.43,26.34,32.31,41.57,17.22l.3-.3c5.06-5.06,9.4-10.55,13.09-16.35"/>
  <path d="M323.49,153.89c-.13-.65-.22-1.31-.36-1.96-.34-1.64-.75-3.26-1.15-4.87-.46-1.86-.92-3.71-1.45-5.55-.47-1.61-1-3.2-1.52-4.8-.58-1.78-1.16-3.55-1.82-5.31-.61-1.66-1.3-3.28-1.97-4.91-.67-1.63-1.34-3.27-2.08-4.88-.78-1.7-1.62-3.36-2.47-5.02-.76-1.5-1.51-3-2.32-4.48-.92-1.67-1.91-3.31-2.9-4.94-1.2-1.99-2.39-3.97-3.75-5.9h-.03c-5.8,3.68-11.29,8.03-16.36,13.09-.1.1-.19.2-.29.3-15.09,15.22-4.21,41.47,17.22,41.57h.42c7.16,0,14.12-.81,20.82-2.31"/>
  <path d="M301.67,262.26c.37-.55.77-1.08,1.13-1.64.92-1.4,1.77-2.83,2.64-4.26.99-1.64,1.98-3.28,2.9-4.95.81-1.47,1.56-2.97,2.32-4.47.85-1.67,1.69-3.33,2.47-5.03.74-1.61,1.4-3.24,2.08-4.87.68-1.63,1.36-3.26,1.98-4.92.65-1.76,1.23-3.53,1.81-5.3.53-1.6,1.06-3.19,1.52-4.81.53-1.84.99-3.69,1.45-5.54.55-2.25,1.12-4.5,1.52-6.82,0,0,0,0-.01-.02-6.71-1.49-13.67-2.31-20.82-2.31h-.42c-21.43.09-32.31,26.34-17.22,41.56.1.1.2.2.3.3,5.06,5.06,10.55,9.4,16.35,13.09"/>
  <path d="M209.63,323.47c.65-.13,1.31-.22,1.96-.36,1.64-.34,3.26-.75,4.87-1.15,1.86-.46,3.71-.92,5.55-1.45,1.62-.47,3.21-1,4.8-1.52,1.78-.58,3.55-1.16,5.31-1.81,1.66-.61,3.29-1.3,4.92-1.97s3.27-1.34,4.88-2.08c1.7-.78,3.36-1.62,5.03-2.47,1.5-.76,3-1.51,4.48-2.32,1.67-.92,3.31-1.91,4.94-2.9,1.99-1.2,3.97-2.39,5.9-3.75v-.03c-3.68-5.8-8.03-11.29-13.09-16.36-.1-.1-.2-.19-.3-.29-15.22-15.09-41.47-4.21-41.57,17.22v.42c0,7.16.82,14.11,2.31,20.82"/>
  <path d="M101.24,301.67c.55.37,1.08.77,1.64,1.13,1.4.92,2.83,1.77,4.26,2.64,1.64.99,3.28,1.98,4.95,2.9,1.47.81,2.97,1.56,4.47,2.32,1.67.85,3.33,1.69,5.03,2.47,1.61.74,3.24,1.4,4.87,2.08,1.63.68,3.26,1.36,4.92,1.98,1.76.65,3.53,1.23,5.3,1.81,1.6.53,3.19,1.06,4.81,1.52,1.84.53,3.69.99,5.54,1.45,2.25.55,4.5,1.12,6.82,1.52,0,0,0,0,.02-.01,1.49-6.7,2.31-13.67,2.31-20.82v-.42c-.09-21.43-26.34-32.31-41.57-17.22-.1.1-.2.2-.3.3-5.06,5.06-9.4,10.55-13.09,16.35"/>
  <path d="M40.03,209.62c.13.65.23,1.31.36,1.96.34,1.64.75,3.26,1.15,4.87.46,1.86.92,3.71,1.45,5.55.47,1.62,1,3.21,1.52,4.8.58,1.78,1.16,3.55,1.82,5.31.61,1.66,1.3,3.29,1.97,4.91.67,1.63,1.34,3.27,2.08,4.88.78,1.7,1.62,3.36,2.47,5.02.76,1.5,1.51,3,2.32,4.48.92,1.67,1.91,3.31,2.9,4.94,1.2,1.99,2.39,3.97,3.75,5.9h.03c5.8-3.68,11.29-8.03,16.36-13.09.1-.1.19-.2.29-.3,15.09-15.22,4.22-41.47-17.22-41.57h-.42c-7.16,0-14.12.81-20.82,2.31"/>
  <path d="M61.85,101.25c-.37.55-.77,1.08-1.13,1.64-.92,1.4-1.77,2.83-2.64,4.26-.99,1.64-1.98,3.28-2.9,4.95-.81,1.47-1.56,2.97-2.32,4.47-.85,1.67-1.69,3.33-2.47,5.03-.74,1.61-1.4,3.24-2.08,4.87-.68,1.63-1.36,3.26-1.98,4.92-.65,1.76-1.23,3.53-1.81,5.3-.53,1.6-1.06,3.19-1.52,4.81-.53,1.84-.99,3.69-1.45,5.54-.55,2.25-1.12,4.5-1.52,6.82,0,0,0,0,0,.02,6.71,1.49,13.67,2.31,20.82,2.31h.42c21.43-.09,32.31-26.34,17.22-41.56l-.3-.3c-5.06-5.06-10.55-9.4-16.35-13.09"/>
  <path d="M153.89,40.04c-.65.13-1.31.23-1.96.36-1.64.34-3.26.75-4.87,1.15-1.86.46-3.71.92-5.55,1.45-1.62.47-3.21,1-4.8,1.52-1.78.58-3.55,1.16-5.31,1.81-1.66.61-3.29,1.3-4.92,1.97-1.63.67-3.27,1.34-4.88,2.08-1.7.78-3.36,1.62-5.03,2.47-1.5.76-3,1.51-4.48,2.32-1.67.92-3.31,1.91-4.94,2.9-1.99,1.2-3.97,2.39-5.9,3.75v.03c3.68,5.8,8.03,11.3,13.09,16.36.1.1.2.19.3.29,15.22,15.09,41.47,4.21,41.57-17.22v-.42c0-7.16-.82-14.11-2.31-20.82"/>
</svg>