<?xml version="1.0" encoding="UTF-8"?>
<svg id="Layer_1" xmlns="http://www.w3.org/2000/svg" version="1.1" viewBox="0 0 363.51 363.51">
  <!-- Generator: Adobe Illustrator 29.8.3, SVG Export Plug-In . SVG Version: 2.1.1 Build 3)  -->
  <path d="M268.42,68.02c-.58-.44-1.17-.89-1.76-1.32-.65-.48-1.29-.96-1.95-1.43-.97-.69-1.96-1.37-2.94-2.04-.61-.41-1.21-.82-1.82-1.22-1.03-.67-2.07-1.33-3.12-1.98-.6-.37-1.2-.74-1.8-1.1-1.05-.63-2.12-1.24-3.19-1.85-.63-.36-1.27-.71-1.91-1.06-1.04-.56-2.08-1.11-3.13-1.64-.71-.37-1.43-.72-2.14-1.07-.98-.48-1.98-.96-2.98-1.42-.81-.37-1.62-.74-2.43-1.1-.92-.4-1.84-.79-2.76-1.18-.92-.38-1.85-.75-2.77-1.12-.83-.32-1.67-.64-2.5-.95-1.03-.38-2.07-.75-3.11-1.1-.76-.26-1.51-.51-2.27-.75-1.12-.36-2.25-.72-3.37-1.05-.7-.21-1.41-.41-2.11-.6-1.18-.34-2.37-.65-3.56-.95-.68-.17-1.37-.34-2.05-.5-1.2-.29-2.4-.56-3.61-.81-.72-.15-1.43-.29-2.15-.43-1.17-.23-2.34-.44-3.52-.64-1.5-.25-3.01-.45-4.51-.71-.02.01-.04.02-.06.03-4.3,10.79-6.69,22.55-6.69,34.87,0,.17,0,.34,0,.51.15,27.78,34.17,41.86,53.91,22.33.12-.12.24-.24.36-.36,8.72-8.71,15.34-18.72,19.94-29.39"/>
  <path d="M323.47,162.62c-.1-.73-.2-1.45-.3-2.18-.12-.79-.24-1.59-.37-2.38-.2-1.18-.42-2.35-.64-3.53-.14-.72-.28-1.43-.43-2.14-.25-1.21-.52-2.41-.81-3.61-.16-.69-.33-1.37-.5-2.05-.3-1.19-.62-2.38-.95-3.56-.2-.7-.4-1.4-.6-2.1-.34-1.13-.69-2.26-1.05-3.38-.25-.76-.5-1.52-.75-2.27-.36-1.04-.73-2.07-1.1-3.11-.31-.83-.62-1.67-.95-2.5-.36-.93-.74-1.86-1.12-2.78-.38-.92-.77-1.84-1.17-2.75-.36-.82-.72-1.63-1.1-2.44-.46-1-.93-1.99-1.41-2.98-.35-.72-.71-1.43-1.07-2.14-.54-1.05-1.08-2.09-1.64-3.12-.35-.64-.7-1.28-1.06-1.92-.6-1.07-1.22-2.13-1.85-3.19-.36-.6-.73-1.2-1.1-1.8-.65-1.05-1.31-2.09-1.98-3.12-.4-.61-.81-1.22-1.22-1.82-.67-.99-1.34-1.97-2.03-2.94-.88-1.23-1.81-2.44-2.69-3.69-.02,0-.04-.01-.06-.02-10.67,4.59-20.68,11.22-29.39,19.93-.12.12-.24.24-.36.36-19.54,19.74-5.45,53.76,22.33,53.91.17,0,.34,0,.51,0,12.32,0,24.08-2.39,34.88-6.69"/>
  <path d="M295.49,268.43c.44-.58.89-1.17,1.32-1.76.48-.65.96-1.29,1.43-1.95.69-.97,1.37-1.96,2.04-2.94.41-.6.82-1.21,1.22-1.82.67-1.03,1.33-2.07,1.98-3.12.37-.6.74-1.2,1.1-1.8.63-1.05,1.24-2.12,1.85-3.19.36-.63.71-1.27,1.06-1.91.56-1.04,1.11-2.08,1.64-3.13.37-.71.72-1.43,1.07-2.14.48-.99.96-1.98,1.42-2.98.37-.81.74-1.62,1.1-2.43.4-.92.79-1.84,1.18-2.76.38-.92.75-1.85,1.12-2.77.32-.83.64-1.67.95-2.5.38-1.03.75-2.07,1.1-3.11.26-.76.51-1.51.75-2.27.36-1.12.72-2.25,1.05-3.37.21-.7.41-1.41.6-2.11.34-1.18.65-2.37.95-3.56.17-.68.34-1.37.5-2.05.29-1.2.56-2.4.81-3.61.15-.72.29-1.43.43-2.15.23-1.17.44-2.34.64-3.52.25-1.5.45-3.01.71-4.51-.01-.02-.02-.03-.03-.06-10.79-4.3-22.55-6.69-34.88-6.69-.17,0-.34,0-.51,0-27.78.15-41.87,34.16-22.33,53.91.12.12.24.24.36.36,8.72,8.71,18.72,15.34,29.39,19.93"/>
  <path d="M200.9,323.47c.73-.1,1.45-.2,2.18-.3.79-.12,1.59-.24,2.38-.37,1.18-.2,2.36-.42,3.53-.64.72-.14,1.43-.28,2.14-.43,1.21-.25,2.41-.52,3.61-.81.69-.16,1.37-.33,2.05-.5,1.19-.3,2.38-.62,3.57-.95.7-.2,1.4-.4,2.1-.6,1.13-.34,2.26-.69,3.38-1.05.76-.25,1.52-.5,2.27-.75,1.04-.36,2.07-.73,3.11-1.1.83-.31,1.67-.62,2.5-.95.93-.36,1.86-.74,2.78-1.12.92-.38,1.84-.77,2.75-1.17.82-.36,1.63-.72,2.44-1.1,1-.46,1.99-.93,2.98-1.41.71-.35,1.43-.71,2.14-1.07,1.05-.54,2.09-1.08,3.12-1.64.64-.35,1.28-.7,1.92-1.06,1.07-.6,2.13-1.22,3.19-1.85.6-.36,1.2-.73,1.8-1.1,1.05-.65,2.09-1.31,3.12-1.98.61-.4,1.22-.81,1.83-1.22.99-.67,1.97-1.34,2.94-2.03,1.23-.88,2.45-1.81,3.69-2.69,0-.02.01-.04.02-.06-4.6-10.67-11.22-20.67-19.94-29.39-.12-.12-.24-.24-.36-.36-19.75-19.54-53.77-5.44-53.91,22.33,0,.17,0,.34,0,.51,0,12.32,2.39,24.08,6.69,34.87"/>
  <path d="M95.08,295.49c.58.44,1.17.89,1.76,1.32.65.48,1.29.96,1.95,1.43.97.69,1.96,1.37,2.94,2.04.61.41,1.21.82,1.82,1.22,1.03.67,2.07,1.33,3.12,1.98.6.37,1.2.74,1.8,1.1,1.05.63,2.12,1.24,3.19,1.85.63.36,1.27.71,1.91,1.06,1.04.56,2.08,1.11,3.13,1.64.71.37,1.43.72,2.14,1.07.99.48,1.98.96,2.98,1.42.81.37,1.62.74,2.43,1.1.92.4,1.84.79,2.76,1.18.92.38,1.85.75,2.77,1.12.83.32,1.67.64,2.5.95,1.03.38,2.07.75,3.11,1.1.76.26,1.51.51,2.27.75,1.12.36,2.25.71,3.37,1.05.7.21,1.41.41,2.11.6,1.18.33,2.37.65,3.56.95.68.17,1.37.34,2.05.5,1.2.29,2.4.56,3.61.81.72.15,1.43.29,2.15.43,1.17.23,2.34.44,3.52.64,1.5.25,3.01.45,4.51.71.02-.01.03-.02.06-.03,4.3-10.79,6.69-22.55,6.69-34.87,0-.17,0-.34,0-.51-.15-27.78-34.17-41.86-53.91-22.33-.12.12-.24.24-.36.36-8.72,8.71-15.34,18.72-19.94,29.39"/>
  <path d="M40.04,201.32c.1.73.2,1.45.3,2.17.12.8.24,1.59.37,2.39.2,1.18.42,2.35.64,3.53.14.72.28,1.43.43,2.14.25,1.21.52,2.41.81,3.61.16.69.33,1.37.5,2.05.3,1.19.62,2.38.95,3.56.2.7.4,1.4.6,2.1.34,1.13.69,2.26,1.05,3.38.25.76.5,1.52.75,2.27.36,1.04.73,2.07,1.1,3.11.31.83.62,1.67.95,2.5.36.93.74,1.86,1.12,2.78.38.92.77,1.84,1.17,2.75.36.82.72,1.63,1.1,2.44.46,1,.93,1.99,1.41,2.98.35.72.71,1.43,1.07,2.14.54,1.05,1.08,2.09,1.64,3.12.35.64.7,1.28,1.06,1.92.6,1.07,1.22,2.13,1.85,3.19.36.6.73,1.2,1.1,1.8.65,1.05,1.31,2.09,1.98,3.12.4.61.81,1.22,1.22,1.83.67.99,1.34,1.97,2.03,2.94.88,1.23,1.81,2.44,2.69,3.69.02,0,.04.01.06.02,10.67-4.59,20.68-11.22,29.39-19.93.12-.12.24-.24.36-.36,19.54-19.74,5.45-53.76-22.33-53.91-.17,0-.34,0-.51,0-12.32,0-24.08,2.39-34.88,6.69"/>
  <path d="M68.03,95.51c-.44.58-.89,1.17-1.32,1.76-.48.65-.96,1.29-1.43,1.95-.69.97-1.37,1.96-2.04,2.94-.41.6-.82,1.21-1.22,1.82-.67,1.03-1.33,2.07-1.98,3.12-.37.6-.74,1.2-1.1,1.8-.63,1.05-1.24,2.12-1.85,3.19-.36.63-.71,1.27-1.06,1.91-.56,1.04-1.11,2.08-1.64,3.13-.37.71-.72,1.43-1.08,2.14-.48.99-.95,1.98-1.41,2.98-.37.81-.74,1.62-1.1,2.43-.4.92-.79,1.84-1.18,2.76-.38.92-.75,1.85-1.12,2.77-.32.83-.64,1.67-.95,2.5-.38,1.03-.75,2.07-1.1,3.11-.26.76-.51,1.51-.75,2.27-.36,1.12-.72,2.25-1.05,3.37-.21.7-.41,1.41-.6,2.11-.34,1.18-.65,2.37-.95,3.56-.17.68-.34,1.37-.5,2.05-.29,1.2-.56,2.4-.81,3.61-.15.72-.29,1.43-.43,2.15-.23,1.17-.44,2.34-.64,3.52-.25,1.5-.45,3.01-.71,4.51.01.02.02.04.03.06,10.79,4.3,22.55,6.69,34.88,6.69.17,0,.34,0,.51,0,27.78-.15,41.87-34.16,22.33-53.91-.12-.12-.24-.24-.36-.36-8.72-8.71-18.72-15.34-29.39-19.93"/>
  <path d="M162.6,40.04c-.73.1-1.45.2-2.18.3-.8.12-1.59.24-2.39.37-1.18.2-2.36.42-3.53.64-.72.14-1.43.28-2.14.43-1.21.25-2.41.52-3.61.81-.69.16-1.37.33-2.05.5-1.19.3-2.38.62-3.56.95-.7.2-1.4.4-2.1.6-1.13.34-2.26.69-3.38,1.05-.76.25-1.52.5-2.27.75-1.04.36-2.07.73-3.11,1.1-.83.31-1.67.62-2.5.95-.93.36-1.86.74-2.78,1.12-.92.38-1.84.77-2.75,1.17-.82.36-1.63.72-2.44,1.1-1,.46-1.99.93-2.98,1.41-.72.35-1.43.71-2.14,1.07-1.05.54-2.09,1.08-3.12,1.64-.64.35-1.28.7-1.92,1.06-1.07.6-2.13,1.22-3.19,1.85-.6.36-1.2.73-1.8,1.1-1.05.65-2.09,1.31-3.12,1.98-.61.4-1.22.81-1.83,1.22-.99.67-1.97,1.34-2.94,2.03-1.23.88-2.45,1.81-3.69,2.69,0,.02-.01.04-.02.07,4.6,10.67,11.22,20.67,19.94,29.39.12.12.24.24.36.36,19.75,19.54,53.77,5.44,53.91-22.33,0-.17,0-.34,0-.51,0-12.32-2.39-24.08-6.69-34.87"/>
</svg>