<?xml version="1.0" encoding="UTF-8"?>
<svg id="Layer_1" xmlns="http://www.w3.org/2000/svg" version="1.1" viewBox="0 0 363.51 363.51">
  <!-- Generator: Adobe Illustrator 29.8.3, SVG Export Plug-In . SVG Version: 2.1.1 Build 3)  -->
  <defs>
    <style>
      .st0 {
        fill: #231f20;
      }
    </style>
  </defs>
  <path class="st0" d="M194.7,40.03c-.26,3.2-.43,6.43-.43,9.71,0,64.88,56.65,119.51,121.54,119.51,2.5,0,4.97-.11,7.44-.26-6.68-66.2-62.73-121-128.55-128.95"/>
  <path class="st0" d="M169.08,49.73c0,64.88-56.65,119.51-121.54,119.51-2.5,0-4.97-.11-7.44-.26,6.68-66.2,62.73-121,128.55-128.95"/>
  <path class="st0" d="M194.86,323.49c-.26-3.2-.43-6.43-.43-9.71,0-64.88,56.65-119.51,121.54-119.51,2.5,0,4.97.11,7.44.26-6.68,66.2-62.73,121-128.55,128.95"/>
  <path class="st0" d="M169.24,313.78c0-64.88-56.65-119.51-121.54-119.51-2.5,0-4.97.11-7.44.26,6.68,66.2,62.73,121,128.55,128.95"/>
</svg>