<?xml version="1.0" encoding="UTF-8"?>
<svg id="Layer_1" xmlns="http://www.w3.org/2000/svg" version="1.1" viewBox="0 0 363.51 363.51">
  <!-- Generator: Adobe Illustrator 29.8.3, SVG Export Plug-In . SVG Version: 2.1.1 Build 3)  -->
  <path d="M206.43,42.32c.01.16.03.31.04.47,2.22,24.33,31.68,36.35,50.71,20.7.12-.1.36-.3.36-.3,0,0-14.47-14.17-51.11-20.86Z"/>
  <path d="M42.42,206.8c.16.01.31.03.47.04,24.33,2.22,36.35,31.68,20.7,50.71-.1.12-.3.36-.3.36,0,0-14.17-14.47-20.86-51.11Z"/>
  <path d="M42.42,156.71c.16-.01.31-.03.47-.04,24.33-2.22,36.35-31.68,20.7-50.71-.1-.12-.3-.36-.3-.36,0,0-14.17,14.47-20.86,51.11Z"/>
  <path d="M206.97,321.2c.01-.16.03-.31.04-.47,2.22-24.33,31.68-36.35,50.71-20.7.12.1.36.3.36.3,0,0-14.47,14.17-51.11,20.86Z"/>
  <path d="M156.88,321.2c-.01-.16-.03-.31-.04-.47-2.22-24.33-31.68-36.35-50.71-20.7-.12.1-.36.3-.36.3,0,0,14.47,14.17,51.11,20.86Z"/>
  <path d="M321.09,156.59c-.16-.01-.31-.03-.47-.04-24.33-2.22-36.35-31.68-20.7-50.71.1-.12.3-.36.3-.36,0,0,14.17,14.47,20.86,51.11Z"/>
  <path d="M321.09,206.68c-.16.01-.31.03-.47.04-24.33,2.22-36.35,31.68-20.7,50.71.1.12.3.36.3.36,0,0,14.17-14.47,20.86-51.11Z"/>
  <path d="M156.34,42.32c-.01.16-.03.31-.04.47-2.22,24.33-31.68,36.35-50.71,20.7-.12-.1-.36-.3-.36-.3,0,0,14.47-14.17,51.11-20.86Z"/>
</svg>