<?xml version="1.0" encoding="UTF-8"?>
<svg id="Layer_1" xmlns="http://www.w3.org/2000/svg" version="1.1" viewBox="0 0 363.51 363.51">
  <!-- Generator: Adobe Illustrator 29.8.3, SVG Export Plug-In . SVG Version: 2.1.1 Build 3)  -->
  <defs>
    <style>
      .st0 {
        fill: #231f20;
      }
    </style>
  </defs>
  <path class="st0" d="M162.6,323.49c4.3-10.8,6.7-22.57,6.7-34.9,0-52.12-42.25-94.37-94.37-94.37-12.34,0-24.1,2.39-34.9,6.7,8.53,63.67,58.91,114.05,122.58,122.58"/>
  <path class="st0" d="M288.59,194.22c-52.12,0-94.37,42.25-94.37,94.37,0,12.34,2.39,24.1,6.7,34.9,63.67-8.53,114.05-58.91,122.58-122.58-10.8-4.3-22.57-6.7-34.9-6.7"/>
  <path class="st0" d="M200.91,40.02c-4.3,10.8-6.7,22.57-6.7,34.9,0,52.12,42.25,94.37,94.37,94.37,12.34,0,24.1-2.39,34.9-6.7-8.53-63.67-58.91-114.05-122.58-122.58"/>
  <path class="st0" d="M169.3,74.93c0-12.34-2.39-24.1-6.7-34.9-63.67,8.53-114.05,58.91-122.58,122.58,10.8,4.3,22.57,6.7,34.9,6.7,52.12,0,94.37-42.25,94.37-94.37"/>
</svg>