<?xml version='1.0' encoding='UTF-8'?>
<svg xmlns="http://www.w3.org/2000/svg" style="isolation:isolate" viewBox="0 0 363.51 363.51"><g style="fill:#ffe9b3; stroke:#ffe9b3; mix-blend-mode:multiply"><!-- Generator: Adobe Illustrator 29.8.3, SVG Export Plug-In . SVG Version: 2.1.1 Build 3)  -->
  <path d="M182.11,288.22l-106.81-106.81,106.11-106.11,106.81,106.81-106.11,106.11ZM181.76,323.49l141.73-141.73L181.76,40.03,40.03,181.76l141.73,141.73Z" style="fill:#ffe9b3"/>
</g><g style="fill:#ffa881; stroke:#ffa881; mix-blend-mode:multiply"><!-- Generator: Adobe Illustrator 29.8.3, SVG Export Plug-In . SVG Version: 2.1.1 Build 3)  -->
  <path d="M40.48,195.5c2.87,27.99,13.34,55.33,31.48,78.61,2.62-2.24,5.18-4.57,7.65-7.05.43-.44.86-.88,1.29-1.32,25.26-26.18,7.14-70.53-29.12-70.72h-.66c-3.59,0-7.13.18-10.64.48" style="fill:#ffa881"/>
  <path d="M90.06,290.32c21.68,17.75,48.29,29.62,77.47,33.17.28-3.44.45-6.92.45-10.44,0-.62,0-1.24-.01-1.85-.52-36.5-44.48-54.95-70.25-29.28-.16.16-.32.31-.47.47-2.54,2.55-4.92,5.21-7.19,7.92" style="fill:#ffa881"/>
  <path d="M196.39,323.4c27.79-2.89,54.95-13.44,78.07-31.7-2.22-2.64-4.53-5.21-7.01-7.7-.43-.44-.87-.87-1.31-1.3-26-25.44-70.04-7.19-70.23,29.32v.66c0,3.61.18,7.18.48,10.72" style="fill:#ffa881"/>
  <path d="M290.55,273.48c17.63-21.83,29.42-48.63,32.94-78.01-3.42-.28-6.87-.46-10.36-.46-.61,0-1.23,0-1.84.01-36.25.53-54.57,44.79-29.07,70.74.15.16.31.32.47.47,2.54,2.55,5.17,4.95,7.86,7.24" style="fill:#ffa881"/>
  <path d="M323.03,168.01c-2.87-27.99-13.34-55.33-31.48-78.61-2.62,2.24-5.18,4.57-7.65,7.05-.43.44-.86.88-1.29,1.32-25.26,26.18-7.14,70.53,29.12,70.72h.66c3.59,0,7.13-.18,10.64-.48" style="fill:#ffa881"/>
  <path d="M273.46,73.2c-21.68-17.75-48.29-29.62-77.47-33.17-.28,3.44-.45,6.92-.45,10.44,0,.62,0,1.24.01,1.85.52,36.5,44.48,54.95,70.25,29.28.16-.16.32-.31.47-.47,2.54-2.55,4.92-5.21,7.19-7.92" style="fill:#ffa881"/>
  <path d="M167.13,40.11c-27.79,2.89-54.95,13.44-78.07,31.7,2.22,2.64,4.53,5.21,7.01,7.7.43.44.87.87,1.31,1.3,26,25.44,70.04,7.19,70.23-29.32v-.66c0-3.61-.18-7.18-.48-10.72" style="fill:#ffa881"/>
  <path d="M72.97,90.03c-17.63,21.83-29.42,48.63-32.94,78.01,3.42.28,6.87.46,10.36.46.61,0,1.23,0,1.84-.01,36.25-.53,54.57-44.79,29.07-70.74-.15-.16-.31-.32-.47-.47-2.54-2.55-5.17-4.95-7.86-7.24" style="fill:#ffa881"/>
</g><g style="fill:#eba1b1; stroke:#eba1b1; mix-blend-mode:multiply"><!-- Generator: Adobe Illustrator 29.8.3, SVG Export Plug-In . SVG Version: 2.1.1 Build 3)  -->
  <rect x="172.09" y="19.1" width="21.03" height="21.03" transform="translate(151.98 212.06) rotate(-89.68)" style="fill:#eba1b1"/>
  <rect x="324.06" y="172.77" width="21.03" height="21.03" transform="translate(149.44 516.84) rotate(-89.68)" style="fill:#eba1b1"/>
  <rect x="170.4" y="324.74" width="21.03" height="21.03" transform="translate(-155.34 514.3) rotate(-89.68)" style="fill:#eba1b1"/>
  <rect x="18.43" y="171.07" width="21.03" height="21.03" transform="translate(-152.8 209.53) rotate(-89.68)" style="fill:#eba1b1"/>
</g><g style="fill:#ffeb96; stroke:#ffeb96"><!-- Generator: Adobe Illustrator 29.8.3, SVG Export Plug-In . SVG Version: 2.1.1 Build 3)  -->
  <rect x="145.93" y="145.93" width="71.65" height="71.65" transform="translate(-75.29 181.76) rotate(-45)" style="fill:#ffeb96"/>
</g></svg>