<?xml version='1.0' encoding='UTF-8'?>
<svg xmlns="http://www.w3.org/2000/svg" style="isolation:isolate" viewBox="0 0 363.51 363.51"><g style="fill:#ffe9b3; stroke:#ffe9b3; mix-blend-mode:multiply"><!-- Generator: Adobe Illustrator 29.8.3, SVG Export Plug-In . SVG Version: 2.1.1 Build 3)  -->
  <path d="M182.11,288.22l-106.81-106.81,106.11-106.11,106.81,106.81-106.11,106.11ZM181.76,323.49l141.73-141.73L181.76,40.03,40.03,181.76l141.73,141.73Z" style="fill:#ffe9b3"/>
</g><g style="fill:#67b3e2; stroke:#67b3e2; mix-blend-mode:multiply"><!-- Generator: Adobe Illustrator 29.8.3, SVG Export Plug-In . SVG Version: 2.1.1 Build 3)  -->
  <path d="M206.43,42.32c.01.16.03.31.04.47,2.22,24.33,31.68,36.35,50.71,20.7.12-.1.36-.3.36-.3,0,0-14.47-14.17-51.11-20.86Z" style="fill:#67b3e2"/>
  <path d="M42.42,206.8c.16.01.31.03.47.04,24.33,2.22,36.35,31.68,20.7,50.71-.1.12-.3.36-.3.36,0,0-14.17-14.47-20.86-51.11Z" style="fill:#67b3e2"/>
  <path d="M42.42,156.71c.16-.01.31-.03.47-.04,24.33-2.22,36.35-31.68,20.7-50.71-.1-.12-.3-.36-.3-.36,0,0-14.17,14.47-20.86,51.11Z" style="fill:#67b3e2"/>
  <path d="M206.97,321.2c.01-.16.03-.31.04-.47,2.22-24.33,31.68-36.35,50.71-20.7.12.1.36.3.36.3,0,0-14.47,14.17-51.11,20.86Z" style="fill:#67b3e2"/>
  <path d="M156.88,321.2c-.01-.16-.03-.31-.04-.47-2.22-24.33-31.68-36.35-50.71-20.7-.12.1-.36.3-.36.3,0,0,14.47,14.17,51.11,20.86Z" style="fill:#67b3e2"/>
  <path d="M321.09,156.59c-.16-.01-.31-.03-.47-.04-24.33-2.22-36.35-31.68-20.7-50.71.1-.12.3-.36.3-.36,0,0,14.17,14.47,20.86,51.11Z" style="fill:#67b3e2"/>
  <path d="M321.09,206.68c-.16.01-.31.03-.47.04-24.33,2.22-36.35,31.68-20.7,50.71.1.12.3.36.3.36,0,0,14.17-14.47,20.86-51.11Z" style="fill:#67b3e2"/>
  <path d="M156.34,42.32c-.01.16-.03.31-.04.47-2.22,24.33-31.68,36.35-50.71,20.7-.12-.1-.36-.3-.36-.3,0,0,14.47-14.17,51.11-20.86Z" style="fill:#67b3e2"/>
</g><g style="fill:#ffc20e; stroke:#ffc20e"><!-- Generator: Adobe Illustrator 29.8.3, SVG Export Plug-In . SVG Version: 2.1.1 Build 3)  -->
  <rect x="145.93" y="145.93" width="71.65" height="71.65" transform="translate(-75.29 181.76) rotate(-45)" style="fill:#ffc20e"/>
</g></svg>