<?xml version='1.0' encoding='UTF-8'?>
<svg xmlns="http://www.w3.org/2000/svg" style="isolation:isolate" viewBox="0 0 363.51 363.51"><g style="fill:#ffe9b3; stroke:#ffe9b3; mix-blend-mode:multiply"><!-- Generator: Adobe Illustrator 29.8.3, SVG Export Plug-In . SVG Version: 2.1.1 Build 3)  -->
  <path d="M182.11,288.22l-106.81-106.81,106.11-106.11,106.81,106.81-106.11,106.11ZM181.76,323.49l141.73-141.73L181.76,40.03,40.03,181.76l141.73,141.73Z" style="fill:#ffe9b3"/>
</g><g style="fill:#fd7702; stroke:#fd7702; mix-blend-mode:multiply"><!-- Generator: Adobe Illustrator 29.8.3, SVG Export Plug-In . SVG Version: 2.1.1 Build 3)  -->
  <path d="M157.09,41.51c-2.1.69-4.2,1.35-6.28,2.08-3.61,1.26-7.2,2.56-10.77,3.92-3.9,1.48-7.79,3.03-11.65,4.63-3.83,1.59-7.64,3.23-11.4,4.93-5.49,2.47-10.94,5.09-16.34,7.79v.08c.13.07.26.13.39.2,21.65,11.02,48.38-.06,55.91-23.19.05-.15.09-.29.14-.43" style="fill:#fd7702"/>
  <path d="M208.68,41.51c2.1.69,4.2,1.35,6.28,2.08,3.61,1.26,7.2,2.56,10.77,3.92,3.9,1.48,7.79,3.03,11.65,4.63,3.83,1.59,7.64,3.23,11.4,4.93,5.49,2.47,10.94,5.09,16.34,7.79v.08c-.13.07-.26.13-.39.2-21.65,11.02-48.38-.06-55.91-23.19-.05-.15-.09-.29-.14-.43" style="fill:#fd7702"/>
  <path d="M157.33,322c-2.1-.69-4.2-1.35-6.28-2.08-3.61-1.26-7.2-2.56-10.77-3.92-3.9-1.48-7.79-3.03-11.65-4.63-3.83-1.59-7.64-3.23-11.4-4.93-5.49-2.47-10.94-5.09-16.34-7.79v-.08c.13-.07.26-.13.39-.2,21.65-11.02,48.38.06,55.91,23.19.05.15.09.29.14.43" style="fill:#fd7702"/>
  <path d="M208.93,322c2.1-.69,4.2-1.35,6.28-2.08,3.61-1.26,7.2-2.56,10.77-3.92,3.9-1.48,7.79-3.03,11.65-4.63,3.83-1.59,7.64-3.23,11.4-4.93,5.49-2.47,10.94-5.09,16.34-7.79v-.08c-.13-.07-.26-.13-.39-.2-21.65-11.02-48.38.06-55.91,23.19-.05.15-.09.29-.14.43" style="fill:#fd7702"/>
  <path d="M63.06,102.83c-1,1.97-2.02,3.92-2.97,5.91-1.66,3.45-3.28,6.91-4.84,10.38-1.71,3.81-3.37,7.65-4.96,11.51-1.58,3.83-3.12,7.68-4.58,11.55-2.13,5.63-4.14,11.33-6.05,17.06l.05.05c.14-.05.28-.09.42-.14,23.11-7.52,34.17-34.25,23.14-55.93-.07-.14-.14-.27-.21-.41" style="fill:#fd7702"/>
  <path d="M298.05,264.51c1-1.97,2.02-3.92,2.97-5.91,1.66-3.45,3.28-6.91,4.84-10.38,1.71-3.81,3.37-7.65,4.96-11.51,1.58-3.83,3.12-7.68,4.58-11.55,2.13-5.63,4.14-11.33,6.05-17.06l-.05-.05c-.14.05-.28.09-.42.14-23.11,7.52-34.17,34.25-23.14,55.93.07.14.14.27.21.41" style="fill:#fd7702"/>
  <path d="M300.45,102.65c1,1.97,2.02,3.92,2.97,5.91,1.66,3.45,3.28,6.91,4.84,10.38,1.71,3.81,3.37,7.65,4.96,11.51,1.58,3.83,3.12,7.68,4.58,11.55,2.13,5.63,4.14,11.33,6.05,17.06l-.05.05c-.14-.05-.28-.09-.42-.14-23.11-7.52-34.17-34.25-23.14-55.93.07-.14.14-.27.21-.41" style="fill:#fd7702"/>
  <path d="M65.81,264.68c-1-1.97-2.02-3.92-2.97-5.91-1.66-3.45-3.28-6.91-4.84-10.38-1.71-3.81-3.37-7.65-4.96-11.51-1.58-3.83-3.12-7.68-4.58-11.55-2.13-5.63-4.14-11.33-6.05-17.06l.05-.05c.14.05.28.09.42.14,23.11,7.52,34.17,34.25,23.14,55.93-.07.14-.14.27-.21.41" style="fill:#fd7702"/>
</g><g style="fill:#ffde2f; stroke:#ffde2f"><!-- Generator: Adobe Illustrator 29.8.3, SVG Export Plug-In . SVG Version: 2.1.1 Build 3)  -->
  <rect x="145.93" y="145.93" width="71.65" height="71.65" transform="translate(-75.29 181.76) rotate(-45)" style="fill:#ffde2f"/>
</g></svg>