<?xml version='1.0' encoding='UTF-8'?>
<svg xmlns="http://www.w3.org/2000/svg" style="isolation:isolate" viewBox="0 0 363.51 363.51"><g style="fill:#ffe9b3; stroke:#ffe9b3; mix-blend-mode:multiply"><!-- Generator: Adobe Illustrator 29.8.3, SVG Export Plug-In . SVG Version: 2.1.1 Build 3)  -->
  <rect x="81.54" y="81.54" width="200.44" height="200.44" transform="translate(-75.29 181.76) rotate(-45)" style="fill:#ffe9b3"/>
</g><g style="fill:#67b3e2; stroke:#67b3e2; mix-blend-mode:multiply"><!-- Generator: Adobe Illustrator 29.8.3, SVG Export Plug-In . SVG Version: 2.1.1 Build 3)  -->
  <defs>
    <style>
      .st0 {
        fill: #231f20;
      }
    </style>
  </defs>
  <path class="st0" d="M206.84,249.15v74.34c59.39-10.44,106.24-57.27,116.68-116.65h-74.34c-7.29,19.52-22.79,35.04-42.34,42.32M40,206.84c10.44,59.39,57.28,106.21,116.68,116.65v-74.34c-19.55-7.28-35.05-22.79-42.34-42.32H40ZM156.68,114.36V40.03c-59.39,10.44-106.24,57.26-116.68,116.65h74.34c7.29-19.52,22.79-35.04,42.34-42.32M323.52,156.68c-10.44-59.39-57.29-106.21-116.68-116.65v74.34c19.54,7.28,35.05,22.79,42.34,42.32h74.34Z" style="fill:#67b3e2"/>
</g><g style="fill:#f1c4d6; stroke:#f1c4d6; mix-blend-mode:multiply"><!-- Generator: Adobe Illustrator 29.8.3, SVG Export Plug-In . SVG Version: 2.1.1 Build 3)  -->
  <rect x="172.1" y="19.11" width="21.03" height="21.03" transform="translate(151.97 212.07) rotate(-89.68)" style="fill:#f1c4d6"/>
  <rect x="324.08" y="172.78" width="21.03" height="21.03" transform="translate(149.43 516.86) rotate(-89.68)" style="fill:#f1c4d6"/>
  <rect x="170.41" y="324.75" width="21.03" height="21.03" transform="translate(-155.35 514.31) rotate(-89.68)" style="fill:#f1c4d6"/>
  <rect x="18.43" y="171.08" width="21.03" height="21.03" transform="translate(-152.81 209.53) rotate(-89.68)" style="fill:#f1c4d6"/>
  <rect x="279.9" y="64.47" width="21.03" height="21.03" transform="translate(31.19 225.87) rotate(-44.68)" style="fill:#f1c4d6"/>
  <rect x="278.7" y="280.6" width="21.03" height="21.03" transform="translate(-121.12 287.48) rotate(-44.68)" style="fill:#f1c4d6"/>
  <rect x="62.58" y="279.39" width="21.03" height="21.03" transform="translate(-182.72 135.17) rotate(-44.68)" style="fill:#f1c4d6"/>
  <rect x="63.78" y="63.27" width="21.03" height="21.03" transform="translate(-30.41 73.56) rotate(-44.68)" style="fill:#f1c4d6"/>
</g><g style="fill:#766fb3; stroke:#766fb3"><!-- Generator: Adobe Illustrator 29.8.3, SVG Export Plug-In . SVG Version: 2.1.1 Build 3)  -->
  <rect x="145.93" y="145.93" width="71.65" height="71.65" transform="translate(-75.29 181.76) rotate(-45)" style="fill:#766fb3"/>
</g></svg>