<?xml version='1.0' encoding='UTF-8'?>
<svg xmlns="http://www.w3.org/2000/svg" style="isolation:isolate" viewBox="0 0 363.51 363.51"><g style="fill:#ffe9b3; stroke:#ffe9b3; mix-blend-mode:multiply"><!-- Generator: Adobe Illustrator 29.8.3, SVG Export Plug-In . SVG Version: 2.1.1 Build 3)  -->
  <path d="M182.57,253.31l-72.36-72.36,70.74-70.74,72.36,72.36-70.74,70.74h0ZM181.76,323.49l141.73-141.73L181.76,40.03,40.03,181.76l141.73,141.73Z" style="fill:#ffe9b3"/>
</g><g style="fill:#ff8e00; stroke:#ff8e00; mix-blend-mode:multiply"><!-- Generator: Adobe Illustrator 29.8.3, SVG Export Plug-In . SVG Version: 2.1.1 Build 3)  -->
  <path d="M74.19,88.95c.16-.17.28.37.43.56,23.63,31.01,4.74,76.55-33.92,81.79-.23.03-.47.06-.7.09,0,0,2.09-47.89,34.19-82.44Z" style="fill:#ff8e00"/>
  <path d="M74.19,274.56c.16.17.28-.37.43-.56,23.63-31.01,4.74-76.55-33.92-81.79-.23-.03-.47-.06-.7-.09,0,0,2.09,47.89,34.19,82.44Z" style="fill:#ff8e00"/>
  <path d="M88.95,289.3c-.17-.16.37-.28.56-.43,31.01-23.63,76.55-4.74,81.79,33.92.03.23.06.47.09.7,0,0-47.89-2.09-82.44-34.19Z" style="fill:#ff8e00"/>
  <path d="M274.56,289.3c.17-.16-.37-.28-.56-.43-31.01-23.63-76.55-4.74-81.79,33.92-.03.23-.06.47-.09.7,0,0,47.89-2.09,82.44-34.19Z" style="fill:#ff8e00"/>
  <path d="M289.33,274.56c-.16.17-.28-.37-.43-.56-23.63-31.01-4.74-76.55,33.92-81.79.23-.03.47-.06.7-.09,0,0-2.09,47.89-34.19,82.44Z" style="fill:#ff8e00"/>
  <path d="M289.33,88.95c-.16-.17-.28.37-.43.56-23.63,31.01-4.74,76.55,33.92,81.79.23.03.47.06.7.09,0,0-2.09-47.89-34.19-82.44Z" style="fill:#ff8e00"/>
  <path d="M274.55,74.22c.17.16-.37.28-.56.43-31.01,23.63-76.55,4.74-81.79-33.92-.03-.23-.06-.47-.09-.7,0,0,47.89,2.09,82.44,34.19Z" style="fill:#ff8e00"/>
  <path d="M88.95,74.22c-.17.16.37.28.56.43,31.01,23.63,76.55,4.74,81.79-33.92.03-.23.06-.47.09-.7,0,0-47.89,2.09-82.44,34.19Z" style="fill:#ff8e00"/>
</g><g style="fill:#e6b00f; stroke:#e6b00f"><!-- Generator: Adobe Illustrator 29.8.3, SVG Export Plug-In . SVG Version: 2.1.1 Build 3)  -->
  <rect x="145.93" y="145.93" width="71.65" height="71.65" transform="translate(-75.29 181.76) rotate(-45)" style="fill:#e6b00f"/>
</g></svg>