<?xml version='1.0' encoding='UTF-8'?>
<svg xmlns="http://www.w3.org/2000/svg" style="isolation:isolate" viewBox="0 0 1454.04 2544.5699999999997" width="1454.04" height="2544.5699999999997"><g transform="translate(0.0,0.0)"><g style="fill:#ffe9b3; stroke:#ffe9b3; mix-blend-mode:multiply"><!-- Generator: Adobe Illustrator 29.8.3, SVG Export Plug-In . SVG Version: 2.1.1 Build 3)  -->
  <path d="M182.57,253.31l-72.36-72.36,70.74-70.74,72.36,72.36-70.74,70.74h0ZM181.76,323.49l141.73-141.73L181.76,40.03,40.03,181.76l141.73,141.73Z" style="fill:#ffe9b3"/>
</g><g style="fill:#ff8e00; stroke:#ff8e00; mix-blend-mode:multiply"><!-- Generator: Adobe Illustrator 29.8.3, SVG Export Plug-In . SVG Version: 2.1.1 Build 3)  -->
  <path d="M74.19,88.95c.16-.17.28.37.43.56,23.63,31.01,4.74,76.55-33.92,81.79-.23.03-.47.06-.7.09,0,0,2.09-47.89,34.19-82.44Z" style="fill:#ff8e00"/>
  <path d="M74.19,274.56c.16.17.28-.37.43-.56,23.63-31.01,4.74-76.55-33.92-81.79-.23-.03-.47-.06-.7-.09,0,0,2.09,47.89,34.19,82.44Z" style="fill:#ff8e00"/>
  <path d="M88.95,289.3c-.17-.16.37-.28.56-.43,31.01-23.63,76.55-4.74,81.79,33.92.03.23.06.47.09.7,0,0-47.89-2.09-82.44-34.19Z" style="fill:#ff8e00"/>
  <path d="M274.56,289.3c.17-.16-.37-.28-.56-.43-31.01-23.63-76.55-4.74-81.79,33.92-.03.23-.06.47-.09.7,0,0,47.89-2.09,82.44-34.19Z" style="fill:#ff8e00"/>
  <path d="M289.33,274.56c-.16.17-.28-.37-.43-.56-23.63-31.01-4.74-76.55,33.92-81.79.23-.03.47-.06.7-.09,0,0-2.09,47.89-34.19,82.44Z" style="fill:#ff8e00"/>
  <path d="M289.33,88.95c-.16-.17-.28.37-.43.56-23.63,31.01-4.74,76.55,33.92,81.79.23.03.47.06.7.09,0,0-2.09-47.89-34.19-82.44Z" style="fill:#ff8e00"/>
  <path d="M274.55,74.22c.17.16-.37.28-.56.43-31.01,23.63-76.55,4.74-81.79-33.92-.03-.23-.06-.47-.09-.7,0,0,47.89,2.09,82.44,34.19Z" style="fill:#ff8e00"/>
  <path d="M88.95,74.22c-.17.16.37.28.56.43,31.01,23.63,76.55,4.74,81.79-33.92.03-.23.06-.47.09-.7,0,0-47.89,2.09-82.44,34.19Z" style="fill:#ff8e00"/>
</g><g style="fill:#b1ce6f; stroke:#b1ce6f; mix-blend-mode:multiply"><!-- Generator: Adobe Illustrator 29.8.3, SVG Export Plug-In . SVG Version: 2.1.1 Build 3)  -->
  <rect x="172.09" y="19.1" width="21.03" height="21.03" transform="translate(151.98 212.06) rotate(-89.68)" style="fill:#b1ce6f"/>
  <rect x="324.06" y="172.77" width="21.03" height="21.03" transform="translate(149.44 516.84) rotate(-89.68)" style="fill:#b1ce6f"/>
  <rect x="170.4" y="324.74" width="21.03" height="21.03" transform="translate(-155.34 514.3) rotate(-89.68)" style="fill:#b1ce6f"/>
  <rect x="18.43" y="171.07" width="21.03" height="21.03" transform="translate(-152.8 209.53) rotate(-89.68)" style="fill:#b1ce6f"/>
</g><g style="fill:#ffeb96; stroke:#ffeb96"><!-- Generator: Adobe Illustrator 29.8.3, SVG Export Plug-In . SVG Version: 2.1.1 Build 3)  -->
  <rect x="145.93" y="145.93" width="71.65" height="71.65" transform="translate(-75.29 181.76) rotate(-45)" style="fill:#ffeb96"/>
</g></g><g transform="translate(363.51,0.0)"><g style="fill:#ffe9b3; stroke:#ffe9b3; mix-blend-mode:multiply"><!-- Generator: Adobe Illustrator 29.8.3, SVG Export Plug-In . SVG Version: 2.1.1 Build 3)  -->
  <path d="M182.11,288.22l-106.81-106.81,106.11-106.11,106.81,106.81-106.11,106.11ZM181.76,323.49l141.73-141.73L181.76,40.03,40.03,181.76l141.73,141.73Z" style="fill:#ffe9b3"/>
</g><g style="fill:#ffa881; stroke:#ffa881; mix-blend-mode:multiply"><!-- Generator: Adobe Illustrator 29.8.3, SVG Export Plug-In . SVG Version: 2.1.1 Build 3)  -->
  <path d="M40.48,195.5c2.87,27.99,13.34,55.33,31.48,78.61,2.62-2.24,5.18-4.57,7.65-7.05.43-.44.86-.88,1.29-1.32,25.26-26.18,7.14-70.53-29.12-70.72h-.66c-3.59,0-7.13.18-10.64.48" style="fill:#ffa881"/>
  <path d="M90.06,290.32c21.68,17.75,48.29,29.62,77.47,33.17.28-3.44.45-6.92.45-10.44,0-.62,0-1.24-.01-1.85-.52-36.5-44.48-54.95-70.25-29.28-.16.16-.32.31-.47.47-2.54,2.55-4.92,5.21-7.19,7.92" style="fill:#ffa881"/>
  <path d="M196.39,323.4c27.79-2.89,54.95-13.44,78.07-31.7-2.22-2.64-4.53-5.21-7.01-7.7-.43-.44-.87-.87-1.31-1.3-26-25.44-70.04-7.19-70.23,29.32v.66c0,3.61.18,7.18.48,10.72" style="fill:#ffa881"/>
  <path d="M290.55,273.48c17.63-21.83,29.42-48.63,32.94-78.01-3.42-.28-6.87-.46-10.36-.46-.61,0-1.23,0-1.84.01-36.25.53-54.57,44.79-29.07,70.74.15.16.31.32.47.47,2.54,2.55,5.17,4.95,7.86,7.24" style="fill:#ffa881"/>
  <path d="M323.03,168.01c-2.87-27.99-13.34-55.33-31.48-78.61-2.62,2.24-5.18,4.57-7.65,7.05-.43.44-.86.88-1.29,1.32-25.26,26.18-7.14,70.53,29.12,70.72h.66c3.59,0,7.13-.18,10.64-.48" style="fill:#ffa881"/>
  <path d="M273.46,73.2c-21.68-17.75-48.29-29.62-77.47-33.17-.28,3.44-.45,6.92-.45,10.44,0,.62,0,1.24.01,1.85.52,36.5,44.48,54.95,70.25,29.28.16-.16.32-.31.47-.47,2.54-2.55,4.92-5.21,7.19-7.92" style="fill:#ffa881"/>
  <path d="M167.13,40.11c-27.79,2.89-54.95,13.44-78.07,31.7,2.22,2.64,4.53,5.21,7.01,7.7.43.44.87.87,1.31,1.3,26,25.44,70.04,7.19,70.23-29.32v-.66c0-3.61-.18-7.18-.48-10.72" style="fill:#ffa881"/>
  <path d="M72.97,90.03c-17.63,21.83-29.42,48.63-32.94,78.01,3.42.28,6.87.46,10.36.46.61,0,1.23,0,1.84-.01,36.25-.53,54.57-44.79,29.07-70.74-.15-.16-.31-.32-.47-.47-2.54-2.55-5.17-4.95-7.86-7.24" style="fill:#ffa881"/>
</g><g style="fill:#eba1b1; stroke:#eba1b1; mix-blend-mode:multiply"><!-- Generator: Adobe Illustrator 29.8.3, SVG Export Plug-In . SVG Version: 2.1.1 Build 3)  -->
  <rect x="172.09" y="19.1" width="21.03" height="21.03" transform="translate(151.98 212.06) rotate(-89.68)" style="fill:#eba1b1"/>
  <rect x="324.06" y="172.77" width="21.03" height="21.03" transform="translate(149.44 516.84) rotate(-89.68)" style="fill:#eba1b1"/>
  <rect x="170.4" y="324.74" width="21.03" height="21.03" transform="translate(-155.34 514.3) rotate(-89.68)" style="fill:#eba1b1"/>
  <rect x="18.43" y="171.07" width="21.03" height="21.03" transform="translate(-152.8 209.53) rotate(-89.68)" style="fill:#eba1b1"/>
</g><g style="fill:#ffeb96; stroke:#ffeb96"><!-- Generator: Adobe Illustrator 29.8.3, SVG Export Plug-In . SVG Version: 2.1.1 Build 3)  -->
  <rect x="145.93" y="145.93" width="71.65" height="71.65" transform="translate(-75.29 181.76) rotate(-45)" style="fill:#ffeb96"/>
</g></g><g transform="translate(727.02,0.0)"><g style="fill:#ffe9b3; stroke:#ffe9b3; mix-blend-mode:multiply"><!-- Generator: Adobe Illustrator 29.8.3, SVG Export Plug-In . SVG Version: 2.1.1 Build 3)  -->
  <path d="M182.11,288.22l-106.81-106.81,106.11-106.11,106.81,106.81-106.11,106.11ZM181.76,323.49l141.73-141.73L181.76,40.03,40.03,181.76l141.73,141.73Z" style="fill:#ffe9b3"/>
</g><g style="fill:#67b3e2; stroke:#67b3e2; mix-blend-mode:multiply"><!-- Generator: Adobe Illustrator 29.8.3, SVG Export Plug-In . SVG Version: 2.1.1 Build 3)  -->
  <path d="M206.43,42.32c.01.16.03.31.04.47,2.22,24.33,31.68,36.35,50.71,20.7.12-.1.36-.3.36-.3,0,0-14.47-14.17-51.11-20.86Z" style="fill:#67b3e2"/>
  <path d="M42.42,206.8c.16.01.31.03.47.04,24.33,2.22,36.35,31.68,20.7,50.71-.1.12-.3.36-.3.36,0,0-14.17-14.47-20.86-51.11Z" style="fill:#67b3e2"/>
  <path d="M42.42,156.71c.16-.01.31-.03.47-.04,24.33-2.22,36.35-31.68,20.7-50.71-.1-.12-.3-.36-.3-.36,0,0-14.17,14.47-20.86,51.11Z" style="fill:#67b3e2"/>
  <path d="M206.97,321.2c.01-.16.03-.31.04-.47,2.22-24.33,31.68-36.35,50.71-20.7.12.1.36.3.36.3,0,0-14.47,14.17-51.11,20.86Z" style="fill:#67b3e2"/>
  <path d="M156.88,321.2c-.01-.16-.03-.31-.04-.47-2.22-24.33-31.68-36.35-50.71-20.7-.12.1-.36.3-.36.3,0,0,14.47,14.17,51.11,20.86Z" style="fill:#67b3e2"/>
  <path d="M321.09,156.59c-.16-.01-.31-.03-.47-.04-24.33-2.22-36.35-31.68-20.7-50.71.1-.12.3-.36.3-.36,0,0,14.17,14.47,20.86,51.11Z" style="fill:#67b3e2"/>
  <path d="M321.09,206.68c-.16.01-.31.03-.47.04-24.33,2.22-36.35,31.68-20.7,50.71.1.12.3.36.3.36,0,0,14.17-14.47,20.86-51.11Z" style="fill:#67b3e2"/>
  <path d="M156.34,42.32c-.01.16-.03.31-.04.47-2.22,24.33-31.68,36.35-50.71,20.7-.12-.1-.36-.3-.36-.3,0,0,14.47-14.17,51.11-20.86Z" style="fill:#67b3e2"/>
</g><g style="fill:#ffc20e; stroke:#ffc20e"><!-- Generator: Adobe Illustrator 29.8.3, SVG Export Plug-In . SVG Version: 2.1.1 Build 3)  -->
  <rect x="145.93" y="145.93" width="71.65" height="71.65" transform="translate(-75.29 181.76) rotate(-45)" style="fill:#ffc20e"/>
</g></g><g transform="translate(1090.53,0.0)"><g style="fill:#ffe9b3; stroke:#ffe9b3; mix-blend-mode:multiply"><!-- Generator: Adobe Illustrator 29.8.3, SVG Export Plug-In . SVG Version: 2.1.1 Build 3)  -->
  <path d="M182.11,288.22l-106.81-106.81,106.11-106.11,106.81,106.81-106.11,106.11ZM181.76,323.49l141.73-141.73L181.76,40.03,40.03,181.76l141.73,141.73Z" style="fill:#ffe9b3"/>
</g><g style="fill:#fd7702; stroke:#fd7702; mix-blend-mode:multiply"><!-- Generator: Adobe Illustrator 29.8.3, SVG Export Plug-In . SVG Version: 2.1.1 Build 3)  -->
  <path d="M157.09,41.51c-2.1.69-4.2,1.35-6.28,2.08-3.61,1.26-7.2,2.56-10.77,3.92-3.9,1.48-7.79,3.03-11.65,4.63-3.83,1.59-7.64,3.23-11.4,4.93-5.49,2.47-10.94,5.09-16.34,7.79v.08c.13.07.26.13.39.2,21.65,11.02,48.38-.06,55.91-23.19.05-.15.09-.29.14-.43" style="fill:#fd7702"/>
  <path d="M208.68,41.51c2.1.69,4.2,1.35,6.28,2.08,3.61,1.26,7.2,2.56,10.77,3.92,3.9,1.48,7.79,3.03,11.65,4.63,3.83,1.59,7.64,3.23,11.4,4.93,5.49,2.47,10.94,5.09,16.34,7.79v.08c-.13.07-.26.13-.39.2-21.65,11.02-48.38-.06-55.91-23.19-.05-.15-.09-.29-.14-.43" style="fill:#fd7702"/>
  <path d="M157.33,322c-2.1-.69-4.2-1.35-6.28-2.08-3.61-1.26-7.2-2.56-10.77-3.92-3.9-1.48-7.79-3.03-11.65-4.63-3.83-1.59-7.64-3.23-11.4-4.93-5.49-2.47-10.94-5.09-16.34-7.79v-.08c.13-.07.26-.13.39-.2,21.65-11.02,48.38.06,55.91,23.19.05.15.09.29.14.43" style="fill:#fd7702"/>
  <path d="M208.93,322c2.1-.69,4.2-1.35,6.28-2.08,3.61-1.26,7.2-2.56,10.77-3.92,3.9-1.48,7.79-3.03,11.65-4.63,3.83-1.59,7.64-3.23,11.4-4.93,5.49-2.47,10.94-5.09,16.34-7.79v-.08c-.13-.07-.26-.13-.39-.2-21.65-11.02-48.38.06-55.91,23.19-.05.15-.09.29-.14.43" style="fill:#fd7702"/>
  <path d="M63.06,102.83c-1,1.97-2.02,3.92-2.97,5.91-1.66,3.45-3.28,6.91-4.84,10.38-1.71,3.81-3.37,7.65-4.96,11.51-1.58,3.83-3.12,7.68-4.58,11.55-2.13,5.63-4.14,11.33-6.05,17.06l.05.05c.14-.05.28-.09.42-.14,23.11-7.52,34.17-34.25,23.14-55.93-.07-.14-.14-.27-.21-.41" style="fill:#fd7702"/>
  <path d="M298.05,264.51c1-1.97,2.02-3.92,2.97-5.91,1.66-3.45,3.28-6.91,4.84-10.38,1.71-3.81,3.37-7.65,4.96-11.51,1.58-3.83,3.12-7.68,4.58-11.55,2.13-5.63,4.14-11.33,6.05-17.06l-.05-.05c-.14.05-.28.09-.42.14-23.11,7.52-34.17,34.25-23.14,55.93.07.14.14.27.21.41" style="fill:#fd7702"/>
  <path d="M300.45,102.65c1,1.97,2.02,3.92,2.97,5.91,1.66,3.45,3.28,6.91,4.84,10.38,1.71,3.81,3.37,7.65,4.96,11.51,1.58,3.83,3.12,7.68,4.58,11.55,2.13,5.63,4.14,11.33,6.05,17.06l-.05.05c-.14-.05-.28-.09-.42-.14-23.11-7.52-34.17-34.25-23.14-55.93.07-.14.14-.27.21-.41" style="fill:#fd7702"/>
  <path d="M65.81,264.68c-1-1.97-2.02-3.92-2.97-5.91-1.66-3.45-3.28-6.91-4.84-10.38-1.71-3.81-3.37-7.65-4.96-11.51-1.58-3.83-3.12-7.68-4.58-11.55-2.13-5.63-4.14-11.33-6.05-17.06l.05-.05c.14.05.28.09.42.14,23.11,7.52,34.17,34.25,23.14,55.93-.07.14-.14.27-.21.41" style="fill:#fd7702"/>
</g><g style="fill:#ffde2f; stroke:#ffde2f"><!-- Generator: Adobe Illustrator 29.8.3, SVG Export Plug-In . SVG Version: 2.1.1 Build 3)  -->
  <rect x="145.93" y="145.93" width="71.65" height="71.65" transform="translate(-75.29 181.76) rotate(-45)" style="fill:#ffde2f"/>
</g></g><g transform="translate(0.0,363.51)"><g style="fill:#ffe9b3; stroke:#ffe9b3; mix-blend-mode:multiply"><!-- Generator: Adobe Illustrator 29.8.3, SVG Export Plug-In . SVG Version: 2.1.1 Build 3)  -->
  <path d="M182.11,288.22l-106.81-106.81,106.11-106.11,106.81,106.81-106.11,106.11ZM181.76,323.49l141.73-141.73L181.76,40.03,40.03,181.76l141.73,141.73Z" style="fill:#ffe9b3"/>
</g><g style="fill:#ff5003; stroke:#ff5003; mix-blend-mode:multiply"><!-- Generator: Adobe Illustrator 29.8.3, SVG Export Plug-In . SVG Version: 2.1.1 Build 3)  -->
  <path d="M40.48,195.5c2.87,27.99,13.34,55.33,31.48,78.61,2.62-2.24,5.18-4.57,7.65-7.05.43-.44.86-.88,1.29-1.32,25.26-26.18,7.14-70.53-29.12-70.72h-.66c-3.59,0-7.13.18-10.64.48" style="fill:#ff5003"/>
  <path d="M90.06,290.32c21.68,17.75,48.29,29.62,77.47,33.17.28-3.44.45-6.92.45-10.44,0-.62,0-1.24-.01-1.85-.52-36.5-44.48-54.95-70.25-29.28-.16.16-.32.31-.47.47-2.54,2.55-4.92,5.21-7.19,7.92" style="fill:#ff5003"/>
  <path d="M196.39,323.4c27.79-2.89,54.95-13.44,78.07-31.7-2.22-2.64-4.53-5.21-7.01-7.7-.43-.44-.87-.87-1.31-1.3-26-25.44-70.04-7.19-70.23,29.32v.66c0,3.61.18,7.18.48,10.72" style="fill:#ff5003"/>
  <path d="M290.55,273.48c17.63-21.83,29.42-48.63,32.94-78.01-3.42-.28-6.87-.46-10.36-.46-.61,0-1.23,0-1.84.01-36.25.53-54.57,44.79-29.07,70.74.15.16.31.32.47.47,2.54,2.55,5.17,4.95,7.86,7.24" style="fill:#ff5003"/>
  <path d="M323.03,168.01c-2.87-27.99-13.34-55.33-31.48-78.61-2.62,2.24-5.18,4.57-7.65,7.05-.43.44-.86.88-1.29,1.32-25.26,26.18-7.14,70.53,29.12,70.72h.66c3.59,0,7.13-.18,10.64-.48" style="fill:#ff5003"/>
  <path d="M273.46,73.2c-21.68-17.75-48.29-29.62-77.47-33.17-.28,3.44-.45,6.92-.45,10.44,0,.62,0,1.24.01,1.85.52,36.5,44.48,54.95,70.25,29.28.16-.16.32-.31.47-.47,2.54-2.55,4.92-5.21,7.19-7.92" style="fill:#ff5003"/>
  <path d="M167.13,40.11c-27.79,2.89-54.95,13.44-78.07,31.7,2.22,2.64,4.53,5.21,7.01,7.7.43.44.87.87,1.31,1.3,26,25.44,70.04,7.19,70.23-29.32v-.66c0-3.61-.18-7.18-.48-10.72" style="fill:#ff5003"/>
  <path d="M72.97,90.03c-17.63,21.83-29.42,48.63-32.94,78.01,3.42.28,6.87.46,10.36.46.61,0,1.23,0,1.84-.01,36.25-.53,54.57-44.79,29.07-70.74-.15-.16-.31-.32-.47-.47-2.54-2.55-5.17-4.95-7.86-7.24" style="fill:#ff5003"/>
</g><g style="fill:#b1ce6f; stroke:#b1ce6f; mix-blend-mode:multiply"><!-- Generator: Adobe Illustrator 29.8.3, SVG Export Plug-In . SVG Version: 2.1.1 Build 3)  -->
  <rect x="172.1" y="19.11" width="21.03" height="21.03" transform="translate(151.97 212.07) rotate(-89.68)" style="fill:#b1ce6f"/>
  <rect x="324.08" y="172.78" width="21.03" height="21.03" transform="translate(149.43 516.86) rotate(-89.68)" style="fill:#b1ce6f"/>
  <rect x="170.41" y="324.75" width="21.03" height="21.03" transform="translate(-155.35 514.31) rotate(-89.68)" style="fill:#b1ce6f"/>
  <rect x="18.43" y="171.08" width="21.03" height="21.03" transform="translate(-152.81 209.53) rotate(-89.68)" style="fill:#b1ce6f"/>
  <rect x="279.9" y="64.47" width="21.03" height="21.03" transform="translate(31.19 225.87) rotate(-44.68)" style="fill:#b1ce6f"/>
  <rect x="278.7" y="280.6" width="21.03" height="21.03" transform="translate(-121.12 287.48) rotate(-44.68)" style="fill:#b1ce6f"/>
  <rect x="62.58" y="279.39" width="21.03" height="21.03" transform="translate(-182.72 135.17) rotate(-44.68)" style="fill:#b1ce6f"/>
  <rect x="63.78" y="63.27" width="21.03" height="21.03" transform="translate(-30.41 73.56) rotate(-44.68)" style="fill:#b1ce6f"/>
</g><g style="fill:#e6b00f; stroke:#e6b00f"><!-- Generator: Adobe Illustrator 29.8.3, SVG Export Plug-In . SVG Version: 2.1.1 Build 3)  -->
  <rect x="145.93" y="145.93" width="71.65" height="71.65" transform="translate(-75.29 181.76) rotate(-45)" style="fill:#e6b00f"/>
</g></g><g transform="translate(363.51,363.51)"><g style="fill:#ffe9b3; stroke:#ffe9b3; mix-blend-mode:multiply"><!-- Generator: Adobe Illustrator 29.8.3, SVG Export Plug-In . SVG Version: 2.1.1 Build 3)  -->
  <path d="M182.57,253.31l-72.36-72.36,70.74-70.74,72.36,72.36-70.74,70.74h0ZM181.76,323.49l141.73-141.73L181.76,40.03,40.03,181.76l141.73,141.73Z" style="fill:#ffe9b3"/>
</g><g style="fill:#1a2270; stroke:#1a2270; mix-blend-mode:multiply"><!-- Generator: Adobe Illustrator 29.8.3, SVG Export Plug-In . SVG Version: 2.1.1 Build 3)  -->
  <defs>
    <style>
      .st0 {
        fill: #231f20;
      }
    </style>
  </defs>
  <path class="st0" d="M194.15,194.15v129.34c68.69-5.93,123.41-60.65,129.35-129.34h-129.35ZM40.01,194.15c5.93,68.69,60.65,123.4,129.35,129.34v-129.34H40.01ZM169.35,169.36V40.03c-68.69,5.93-123.41,60.64-129.34,129.33h129.35-.01ZM323.49,169.36c-5.93-68.69-60.65-123.4-129.34-129.33v129.34h129.35-.01Z" style="fill:#1a2270"/>
</g><g style="fill:#b1ce6f; stroke:#b1ce6f; mix-blend-mode:multiply"><!-- Generator: Adobe Illustrator 29.8.3, SVG Export Plug-In . SVG Version: 2.1.1 Build 3)  -->
  <rect x="172.09" y="19.1" width="21.03" height="21.03" transform="translate(151.98 212.06) rotate(-89.68)" style="fill:#b1ce6f"/>
  <rect x="324.06" y="172.77" width="21.03" height="21.03" transform="translate(149.44 516.84) rotate(-89.68)" style="fill:#b1ce6f"/>
  <rect x="170.4" y="324.74" width="21.03" height="21.03" transform="translate(-155.34 514.3) rotate(-89.68)" style="fill:#b1ce6f"/>
  <rect x="18.43" y="171.07" width="21.03" height="21.03" transform="translate(-152.8 209.53) rotate(-89.68)" style="fill:#b1ce6f"/>
</g><g style="fill:#9893c6; stroke:#9893c6"><!-- Generator: Adobe Illustrator 29.8.3, SVG Export Plug-In . SVG Version: 2.1.1 Build 3)  -->
  <rect x="145.93" y="145.93" width="71.65" height="71.65" transform="translate(-75.29 181.76) rotate(-45)" style="fill:#9893c6"/>
</g></g><g transform="translate(727.02,363.51)"><g style="fill:#ffe9b3; stroke:#ffe9b3; mix-blend-mode:multiply"><!-- Generator: Adobe Illustrator 29.8.3, SVG Export Plug-In . SVG Version: 2.1.1 Build 3)  -->
  <rect x="81.54" y="81.54" width="200.44" height="200.44" transform="translate(-75.29 181.76) rotate(-45)" style="fill:#ffe9b3"/>
</g><g style="fill:#4c8cc5; stroke:#4c8cc5; mix-blend-mode:multiply"><!-- Generator: Adobe Illustrator 29.8.3, SVG Export Plug-In . SVG Version: 2.1.1 Build 3)  -->
  <defs>
    <style>
      .st0 {
        fill: #231f20;
      }
    </style>
  </defs>
  <path class="st0" d="M206.84,249.15v74.34c59.39-10.44,106.24-57.27,116.68-116.65h-74.34c-7.29,19.52-22.79,35.04-42.34,42.32M40,206.84c10.44,59.39,57.28,106.21,116.68,116.65v-74.34c-19.55-7.28-35.05-22.79-42.34-42.32H40ZM156.68,114.36V40.03c-59.39,10.44-106.24,57.26-116.68,116.65h74.34c7.29-19.52,22.79-35.04,42.34-42.32M323.52,156.68c-10.44-59.39-57.29-106.21-116.68-116.65v74.34c19.54,7.28,35.05,22.79,42.34,42.32h74.34Z" style="fill:#4c8cc5"/>
</g><g style="fill:#544ba0; stroke:#544ba0"><!-- Generator: Adobe Illustrator 29.8.3, SVG Export Plug-In . SVG Version: 2.1.1 Build 3)  -->
  <rect x="145.93" y="145.93" width="71.65" height="71.65" transform="translate(-75.29 181.76) rotate(-45)" style="fill:#544ba0"/>
</g></g><g transform="translate(1090.53,363.51)"><g style="fill:#ffe9b3; stroke:#ffe9b3; mix-blend-mode:multiply"><!-- Generator: Adobe Illustrator 29.8.3, SVG Export Plug-In . SVG Version: 2.1.1 Build 3)  -->
  <rect x="81.54" y="81.54" width="200.44" height="200.44" transform="translate(-75.29 181.76) rotate(-45)" style="fill:#ffe9b3"/>
</g><g style="fill:#67b3e2; stroke:#67b3e2; mix-blend-mode:multiply"><!-- Generator: Adobe Illustrator 29.8.3, SVG Export Plug-In . SVG Version: 2.1.1 Build 3)  -->
  <defs>
    <style>
      .st0 {
        fill: #231f20;
      }
    </style>
  </defs>
  <path class="st0" d="M206.84,249.15v74.34c59.39-10.44,106.24-57.27,116.68-116.65h-74.34c-7.29,19.52-22.79,35.04-42.34,42.32M40,206.84c10.44,59.39,57.28,106.21,116.68,116.65v-74.34c-19.55-7.28-35.05-22.79-42.34-42.32H40ZM156.68,114.36V40.03c-59.39,10.44-106.24,57.26-116.68,116.65h74.34c7.29-19.52,22.79-35.04,42.34-42.32M323.52,156.68c-10.44-59.39-57.29-106.21-116.68-116.65v74.34c19.54,7.28,35.05,22.79,42.34,42.32h74.34Z" style="fill:#67b3e2"/>
</g><g style="fill:#f1c4d6; stroke:#f1c4d6; mix-blend-mode:multiply"><!-- Generator: Adobe Illustrator 29.8.3, SVG Export Plug-In . SVG Version: 2.1.1 Build 3)  -->
  <rect x="172.1" y="19.11" width="21.03" height="21.03" transform="translate(151.97 212.07) rotate(-89.68)" style="fill:#f1c4d6"/>
  <rect x="324.08" y="172.78" width="21.03" height="21.03" transform="translate(149.43 516.86) rotate(-89.68)" style="fill:#f1c4d6"/>
  <rect x="170.41" y="324.75" width="21.03" height="21.03" transform="translate(-155.35 514.31) rotate(-89.68)" style="fill:#f1c4d6"/>
  <rect x="18.43" y="171.08" width="21.03" height="21.03" transform="translate(-152.81 209.53) rotate(-89.68)" style="fill:#f1c4d6"/>
  <rect x="279.9" y="64.47" width="21.03" height="21.03" transform="translate(31.19 225.87) rotate(-44.68)" style="fill:#f1c4d6"/>
  <rect x="278.7" y="280.6" width="21.03" height="21.03" transform="translate(-121.12 287.48) rotate(-44.68)" style="fill:#f1c4d6"/>
  <rect x="62.58" y="279.39" width="21.03" height="21.03" transform="translate(-182.72 135.17) rotate(-44.68)" style="fill:#f1c4d6"/>
  <rect x="63.78" y="63.27" width="21.03" height="21.03" transform="translate(-30.41 73.56) rotate(-44.68)" style="fill:#f1c4d6"/>
</g><g style="fill:#766fb3; stroke:#766fb3"><!-- Generator: Adobe Illustrator 29.8.3, SVG Export Plug-In . SVG Version: 2.1.1 Build 3)  -->
  <rect x="145.93" y="145.93" width="71.65" height="71.65" transform="translate(-75.29 181.76) rotate(-45)" style="fill:#766fb3"/>
</g></g><g transform="translate(0.0,727.02)"><g style="fill:#ffe9b3; stroke:#ffe9b3; mix-blend-mode:multiply"><!-- Generator: Adobe Illustrator 29.8.3, SVG Export Plug-In . SVG Version: 2.1.1 Build 3)  -->
  <path d="M182.57,253.31l-72.36-72.36,70.74-70.74,72.36,72.36-70.74,70.74h0ZM181.76,323.49l141.73-141.73L181.76,40.03,40.03,181.76l141.73,141.73Z" style="fill:#ffe9b3"/>
</g><g style="fill:#4c8cc5; stroke:#4c8cc5; mix-blend-mode:multiply"><!-- Generator: Adobe Illustrator 29.8.3, SVG Export Plug-In . SVG Version: 2.1.1 Build 3)  -->
  <defs>
    <style>
      .st0 {
        fill: #231f20;
      }
    </style>
  </defs>
  <path class="st0" d="M206.84,242.3v81.18c21.07-3.7,40.54-12,57.39-23.8l-57.39-57.39h0ZM156.68,242.3l-57.39,57.39c16.84,11.8,36.32,20.09,57.39,23.8v-81.18h0ZM121.21,206.83H40c3.7,21.07,12.01,40.55,23.82,57.4l57.39-57.4ZM63.82,99.28c-11.81,16.84-20.11,36.32-23.82,57.39h81.21l-57.39-57.39ZM156.68,121.2V40.02c-21.07,3.7-40.54,12-57.39,23.8l57.39,57.39h0ZM206.84,121.2l57.39-57.39c-16.85-11.79-36.33-20.09-57.39-23.79v81.18ZM242.31,156.67h81.21c-3.7-21.07-12.01-40.55-23.82-57.39l-57.39,57.39h0ZM299.7,264.22c11.81-16.84,20.11-36.32,23.82-57.4h-81.21l57.39,57.4h0Z" style="fill:#4c8cc5"/>
</g><g style="fill:#e6b00f; stroke:#e6b00f"><!-- Generator: Adobe Illustrator 29.8.3, SVG Export Plug-In . SVG Version: 2.1.1 Build 3)  -->
  <rect x="145.93" y="145.93" width="71.65" height="71.65" transform="translate(-75.29 181.76) rotate(-45)" style="fill:#e6b00f"/>
</g></g><g transform="translate(363.51,727.02)"><g style="fill:#ffe9b3; stroke:#ffe9b3; mix-blend-mode:multiply"><!-- Generator: Adobe Illustrator 29.8.3, SVG Export Plug-In . SVG Version: 2.1.1 Build 3)  -->
  <path d="M182.11,288.22l-106.81-106.81,106.11-106.11,106.81,106.81-106.11,106.11ZM181.76,323.49l141.73-141.73L181.76,40.03,40.03,181.76l141.73,141.73Z" style="fill:#ffe9b3"/>
</g><g style="fill:#ff8e00; stroke:#ff8e00; mix-blend-mode:multiply"><!-- Generator: Adobe Illustrator 29.8.3, SVG Export Plug-In . SVG Version: 2.1.1 Build 3)  -->
  <path d="M157.09,41.51c-2.1.69-4.2,1.35-6.28,2.08-3.61,1.26-7.2,2.56-10.77,3.92-3.9,1.48-7.79,3.03-11.65,4.63-3.83,1.59-7.64,3.23-11.4,4.93-5.49,2.47-10.94,5.09-16.34,7.79v.08c.13.07.26.13.39.2,21.65,11.02,48.38-.06,55.91-23.19.05-.15.09-.29.14-.43" style="fill:#ff8e00"/>
  <path d="M208.68,41.51c2.1.69,4.2,1.35,6.28,2.08,3.61,1.26,7.2,2.56,10.77,3.92,3.9,1.48,7.79,3.03,11.65,4.63,3.83,1.59,7.64,3.23,11.4,4.93,5.49,2.47,10.94,5.09,16.34,7.79v.08c-.13.07-.26.13-.39.2-21.65,11.02-48.38-.06-55.91-23.19-.05-.15-.09-.29-.14-.43" style="fill:#ff8e00"/>
  <path d="M157.33,322c-2.1-.69-4.2-1.35-6.28-2.08-3.61-1.26-7.2-2.56-10.77-3.92-3.9-1.48-7.79-3.03-11.65-4.63-3.83-1.59-7.64-3.23-11.4-4.93-5.49-2.47-10.94-5.09-16.34-7.79v-.08c.13-.07.26-.13.39-.2,21.65-11.02,48.38.06,55.91,23.19.05.15.09.29.14.43" style="fill:#ff8e00"/>
  <path d="M208.93,322c2.1-.69,4.2-1.35,6.28-2.08,3.61-1.26,7.2-2.56,10.77-3.92,3.9-1.48,7.79-3.03,11.65-4.63,3.83-1.59,7.64-3.23,11.4-4.93,5.49-2.47,10.94-5.09,16.34-7.79v-.08c-.13-.07-.26-.13-.39-.2-21.65-11.02-48.38.06-55.91,23.19-.05.15-.09.29-.14.43" style="fill:#ff8e00"/>
  <path d="M63.06,102.83c-1,1.97-2.02,3.92-2.97,5.91-1.66,3.45-3.28,6.91-4.84,10.38-1.71,3.81-3.37,7.65-4.96,11.51-1.58,3.83-3.12,7.68-4.58,11.55-2.13,5.63-4.14,11.33-6.05,17.06l.05.05c.14-.05.28-.09.42-.14,23.11-7.52,34.17-34.25,23.14-55.93-.07-.14-.14-.27-.21-.41" style="fill:#ff8e00"/>
  <path d="M298.05,264.51c1-1.97,2.02-3.92,2.97-5.91,1.66-3.45,3.28-6.91,4.84-10.38,1.71-3.81,3.37-7.65,4.96-11.51,1.58-3.83,3.12-7.68,4.58-11.55,2.13-5.63,4.14-11.33,6.05-17.06l-.05-.05c-.14.05-.28.09-.42.14-23.11,7.52-34.17,34.25-23.14,55.93.07.14.14.27.21.41" style="fill:#ff8e00"/>
  <path d="M300.45,102.65c1,1.97,2.02,3.92,2.97,5.91,1.66,3.45,3.28,6.91,4.84,10.38,1.71,3.81,3.37,7.65,4.96,11.51,1.58,3.83,3.12,7.68,4.58,11.55,2.13,5.63,4.14,11.33,6.05,17.06l-.05.05c-.14-.05-.28-.09-.42-.14-23.11-7.52-34.17-34.25-23.14-55.93.07-.14.14-.27.21-.41" style="fill:#ff8e00"/>
  <path d="M65.81,264.68c-1-1.97-2.02-3.92-2.97-5.91-1.66-3.45-3.28-6.91-4.84-10.38-1.71-3.81-3.37-7.65-4.96-11.51-1.58-3.83-3.12-7.68-4.58-11.55-2.13-5.63-4.14-11.33-6.05-17.06l.05-.05c.14.05.28.09.42.14,23.11,7.52,34.17,34.25,23.14,55.93-.07.14-.14.27-.21.41" style="fill:#ff8e00"/>
</g><g style="fill:#ffc20e; stroke:#ffc20e"><!-- Generator: Adobe Illustrator 29.8.3, SVG Export Plug-In . SVG Version: 2.1.1 Build 3)  -->
  <rect x="145.93" y="145.93" width="71.65" height="71.65" transform="translate(-75.29 181.76) rotate(-45)" style="fill:#ffc20e"/>
</g></g><g transform="translate(727.02,727.02)"><g style="fill:#ffe9b3; stroke:#ffe9b3; mix-blend-mode:multiply"><!-- Generator: Adobe Illustrator 29.8.3, SVG Export Plug-In . SVG Version: 2.1.1 Build 3)  -->
  <path d="M182.57,253.31l-72.36-72.36,70.74-70.74,72.36,72.36-70.74,70.74h0ZM181.76,323.49l141.73-141.73L181.76,40.03,40.03,181.76l141.73,141.73Z" style="fill:#ffe9b3"/>
</g><g style="fill:#ff8e00; stroke:#ff8e00; mix-blend-mode:multiply"><!-- Generator: Adobe Illustrator 29.8.3, SVG Export Plug-In . SVG Version: 2.1.1 Build 3)  -->
  <path d="M74.19,88.95c.16-.17.28.37.43.56,23.63,31.01,4.74,76.55-33.92,81.79-.23.03-.47.06-.7.09,0,0,2.09-47.89,34.19-82.44Z" style="fill:#ff8e00"/>
  <path d="M74.19,274.56c.16.17.28-.37.43-.56,23.63-31.01,4.74-76.55-33.92-81.79-.23-.03-.47-.06-.7-.09,0,0,2.09,47.89,34.19,82.44Z" style="fill:#ff8e00"/>
  <path d="M88.95,289.3c-.17-.16.37-.28.56-.43,31.01-23.63,76.55-4.74,81.79,33.92.03.23.06.47.09.7,0,0-47.89-2.09-82.44-34.19Z" style="fill:#ff8e00"/>
  <path d="M274.56,289.3c.17-.16-.37-.28-.56-.43-31.01-23.63-76.55-4.74-81.79,33.92-.03.23-.06.47-.09.7,0,0,47.89-2.09,82.44-34.19Z" style="fill:#ff8e00"/>
  <path d="M289.33,274.56c-.16.17-.28-.37-.43-.56-23.63-31.01-4.74-76.55,33.92-81.79.23-.03.47-.06.7-.09,0,0-2.09,47.89-34.19,82.44Z" style="fill:#ff8e00"/>
  <path d="M289.33,88.95c-.16-.17-.28.37-.43.56-23.63,31.01-4.74,76.55,33.92,81.79.23.03.47.06.7.09,0,0-2.09-47.89-34.19-82.44Z" style="fill:#ff8e00"/>
  <path d="M274.55,74.22c.17.16-.37.28-.56.43-31.01,23.63-76.55,4.74-81.79-33.92-.03-.23-.06-.47-.09-.7,0,0,47.89,2.09,82.44,34.19Z" style="fill:#ff8e00"/>
  <path d="M88.95,74.22c-.17.16.37.28.56.43,31.01,23.63,76.55,4.74,81.79-33.92.03-.23.06-.47.09-.7,0,0-47.89,2.09-82.44,34.19Z" style="fill:#ff8e00"/>
</g><g style="fill:#e6b00f; stroke:#e6b00f"><!-- Generator: Adobe Illustrator 29.8.3, SVG Export Plug-In . SVG Version: 2.1.1 Build 3)  -->
  <rect x="145.93" y="145.93" width="71.65" height="71.65" transform="translate(-75.29 181.76) rotate(-45)" style="fill:#e6b00f"/>
</g></g><g transform="translate(1090.53,727.02)"><g style="fill:#ffe9b3; stroke:#ffe9b3; mix-blend-mode:multiply"><!-- Generator: Adobe Illustrator 29.8.3, SVG Export Plug-In . SVG Version: 2.1.1 Build 3)  -->
  <rect x="81.54" y="81.54" width="200.44" height="200.44" transform="translate(-75.29 181.76) rotate(-45)" style="fill:#ffe9b3"/>
</g><g style="fill:#4361bb; stroke:#4361bb; mix-blend-mode:multiply"><!-- Generator: Adobe Illustrator 29.8.3, SVG Export Plug-In . SVG Version: 2.1.1 Build 3)  -->
  <defs>
    <style>
      .st0 {
        fill: #231f20;
      }
    </style>
  </defs>
  <path class="st0" d="M206.84,206.84v116.65c59.39-10.44,106.24-57.27,116.68-116.65h-116.68ZM40,206.84c10.44,59.39,57.28,106.21,116.68,116.65v-116.65H40ZM156.68,156.68V40.03c-59.39,10.44-106.24,57.26-116.68,116.65h116.68ZM323.52,156.68c-10.44-59.39-57.29-106.21-116.68-116.65v116.65h116.68Z" style="fill:#4361bb"/>
</g><g style="fill:#544ba0; stroke:#544ba0"><!-- Generator: Adobe Illustrator 29.8.3, SVG Export Plug-In . SVG Version: 2.1.1 Build 3)  -->
  <rect x="145.93" y="145.93" width="71.65" height="71.65" transform="translate(-75.29 181.76) rotate(-45)" style="fill:#544ba0"/>
</g></g><g transform="translate(0.0,1090.53)"><g style="fill:#ffe9b3; stroke:#ffe9b3; mix-blend-mode:multiply"><!-- Generator: Adobe Illustrator 29.8.3, SVG Export Plug-In . SVG Version: 2.1.1 Build 3)  -->
  <path d="M182.57,253.31l-72.36-72.36,70.74-70.74,72.36,72.36-70.74,70.74h0ZM181.76,323.49l141.73-141.73L181.76,40.03,40.03,181.76l141.73,141.73Z" style="fill:#ffe9b3"/>
</g><g style="fill:#1a2270; stroke:#1a2270; mix-blend-mode:multiply"><!-- Generator: Adobe Illustrator 29.8.3, SVG Export Plug-In . SVG Version: 2.1.1 Build 3)  -->
  <defs>
    <style>
      .st0 {
        fill: #231f20;
      }
    </style>
  </defs>
  <path class="st0" d="M206.84,206.84v116.65c59.39-10.44,106.24-57.27,116.68-116.65h-116.68ZM40,206.84c10.44,59.39,57.28,106.21,116.68,116.65v-116.65H40ZM156.68,156.68V40.03c-59.39,10.44-106.24,57.26-116.68,116.65h116.68ZM323.52,156.68c-10.44-59.39-57.29-106.21-116.68-116.65v116.65h116.68Z" style="fill:#1a2270"/>
</g><g style="fill:#ccc9e3; stroke:#ccc9e3"><!-- Generator: Adobe Illustrator 29.8.3, SVG Export Plug-In . SVG Version: 2.1.1 Build 3)  -->
  <rect x="145.93" y="145.93" width="71.65" height="71.65" transform="translate(-75.29 181.76) rotate(-45)" style="fill:#ccc9e3"/>
</g></g><g transform="translate(363.51,1090.53)"><g style="fill:#ffe9b3; stroke:#ffe9b3; mix-blend-mode:multiply"><!-- Generator: Adobe Illustrator 29.8.3, SVG Export Plug-In . SVG Version: 2.1.1 Build 3)  -->
  <path d="M182.57,253.31l-72.36-72.36,70.74-70.74,72.36,72.36-70.74,70.74h0ZM181.76,323.49l141.73-141.73L181.76,40.03,40.03,181.76l141.73,141.73Z" style="fill:#ffe9b3"/>
</g><g style="fill:#1a2270; stroke:#1a2270; mix-blend-mode:multiply"><!-- Generator: Adobe Illustrator 29.8.3, SVG Export Plug-In . SVG Version: 2.1.1 Build 3)  -->
  <defs>
    <style>
      .st0 {
        fill: #231f20;
      }
    </style>
  </defs>
  <path class="st0" d="M206.84,206.84v116.65c59.39-10.44,106.24-57.27,116.68-116.65h-116.68ZM40,206.84c10.44,59.39,57.28,106.21,116.68,116.65v-116.65H40ZM156.68,156.68V40.03c-59.39,10.44-106.24,57.26-116.68,116.65h116.68ZM323.52,156.68c-10.44-59.39-57.29-106.21-116.68-116.65v116.65h116.68Z" style="fill:#1a2270"/>
</g><g style="fill:#ffde2f; stroke:#ffde2f"><!-- Generator: Adobe Illustrator 29.8.3, SVG Export Plug-In . SVG Version: 2.1.1 Build 3)  -->
  <rect x="145.93" y="145.93" width="71.65" height="71.65" transform="translate(-75.29 181.76) rotate(-45)" style="fill:#ffde2f"/>
</g></g><g transform="translate(727.02,1090.53)"><g style="fill:#ffe9b3; stroke:#ffe9b3; mix-blend-mode:multiply"><!-- Generator: Adobe Illustrator 29.8.3, SVG Export Plug-In . SVG Version: 2.1.1 Build 3)  -->
  <path d="M182.11,288.22l-106.81-106.81,106.11-106.11,106.81,106.81-106.11,106.11ZM181.76,323.49l141.73-141.73L181.76,40.03,40.03,181.76l141.73,141.73Z" style="fill:#ffe9b3"/>
</g><g style="fill:#1a2270; stroke:#1a2270; mix-blend-mode:multiply"><!-- Generator: Adobe Illustrator 29.8.3, SVG Export Plug-In . SVG Version: 2.1.1 Build 3)  -->
  <defs>
    <style>
      .st0 {
        fill: #231f20;
      }
    </style>
  </defs>
  <path class="st0" d="M206.84,206.84v116.65c59.39-10.44,106.24-57.27,116.68-116.65h-116.68ZM40,206.84c10.44,59.39,57.28,106.21,116.68,116.65v-116.65H40ZM156.68,156.68V40.03c-59.39,10.44-106.24,57.26-116.68,116.65h116.68ZM323.52,156.68c-10.44-59.39-57.29-106.21-116.68-116.65v116.65h116.68Z" style="fill:#1a2270"/>
</g><g style="fill:#ccc9e3; stroke:#ccc9e3"><!-- Generator: Adobe Illustrator 29.8.3, SVG Export Plug-In . SVG Version: 2.1.1 Build 3)  -->
  <rect x="145.93" y="145.93" width="71.65" height="71.65" transform="translate(-75.29 181.76) rotate(-45)" style="fill:#ccc9e3"/>
</g></g><g transform="translate(1090.53,1090.53)"><g style="fill:#ffe9b3; stroke:#ffe9b3; mix-blend-mode:multiply"><!-- Generator: Adobe Illustrator 29.8.3, SVG Export Plug-In . SVG Version: 2.1.1 Build 3)  -->
  <path d="M182.57,253.31l-72.36-72.36,70.74-70.74,72.36,72.36-70.74,70.74h0ZM181.76,323.49l141.73-141.73L181.76,40.03,40.03,181.76l141.73,141.73Z" style="fill:#ffe9b3"/>
</g><g style="fill:#4c8cc5; stroke:#4c8cc5; mix-blend-mode:multiply"><!-- Generator: Adobe Illustrator 29.8.3, SVG Export Plug-In . SVG Version: 2.1.1 Build 3)  -->
  <defs>
    <style>
      .st0 {
        fill: #231f20;
      }
    </style>
  </defs>
  <path class="st0" d="M206.84,206.84v116.65c59.39-10.44,106.24-57.27,116.68-116.65h-116.68ZM40,206.84c10.44,59.39,57.28,106.21,116.68,116.65v-116.65H40ZM156.68,156.68V40.03c-59.39,10.44-106.24,57.26-116.68,116.65h116.68ZM323.52,156.68c-10.44-59.39-57.29-106.21-116.68-116.65v116.65h116.68Z" style="fill:#4c8cc5"/>
</g><g style="fill:#f1c4d6; stroke:#f1c4d6; mix-blend-mode:multiply"><!-- Generator: Adobe Illustrator 29.8.3, SVG Export Plug-In . SVG Version: 2.1.1 Build 3)  -->
  <rect x="172.09" y="19.1" width="21.03" height="21.03" transform="translate(151.98 212.06) rotate(-89.68)" style="fill:#f1c4d6"/>
  <rect x="324.06" y="172.77" width="21.03" height="21.03" transform="translate(149.44 516.84) rotate(-89.68)" style="fill:#f1c4d6"/>
  <rect x="170.4" y="324.74" width="21.03" height="21.03" transform="translate(-155.34 514.3) rotate(-89.68)" style="fill:#f1c4d6"/>
  <rect x="18.43" y="171.07" width="21.03" height="21.03" transform="translate(-152.8 209.53) rotate(-89.68)" style="fill:#f1c4d6"/>
</g><g style="fill:#9893c6; stroke:#9893c6"><!-- Generator: Adobe Illustrator 29.8.3, SVG Export Plug-In . SVG Version: 2.1.1 Build 3)  -->
  <rect x="145.93" y="145.93" width="71.65" height="71.65" transform="translate(-75.29 181.76) rotate(-45)" style="fill:#9893c6"/>
</g></g><g transform="translate(0.0,1454.04)"><g style="fill:#ffe9b3; stroke:#ffe9b3; mix-blend-mode:multiply"><!-- Generator: Adobe Illustrator 29.8.3, SVG Export Plug-In . SVG Version: 2.1.1 Build 3)  -->
  <path d="M182.57,253.31l-72.36-72.36,70.74-70.74,72.36,72.36-70.74,70.74h0ZM181.76,323.49l141.73-141.73L181.76,40.03,40.03,181.76l141.73,141.73Z" style="fill:#ffe9b3"/>
</g><g style="fill:#67b3e2; stroke:#67b3e2; mix-blend-mode:multiply"><!-- Generator: Adobe Illustrator 29.8.3, SVG Export Plug-In . SVG Version: 2.1.1 Build 3)  -->
  <defs>
    <style>
      .st0 {
        fill: #231f20;
      }
    </style>
  </defs>
  <path class="st0" d="M240.03,222.49l50.7,50.7c18.28-21.76,30.17-49.08,32.76-79.05h-71.72c-1.84,10.4-5.92,20.02-11.75,28.35M222.5,240.02c-8.32,5.83-17.95,9.91-28.35,11.75v71.72c29.98-2.59,57.29-14.48,79.05-32.76l-50.7-50.7h0ZM141.03,240.01l-50.7,50.7c21.76,18.27,49.06,30.16,79.04,32.75v-71.72c-10.4-1.83-20.02-5.92-28.34-11.73M40.03,194.14c2.59,29.98,14.47,57.3,32.76,79.05l50.7-50.7c-5.84-8.31-9.91-17.94-11.75-28.35H40.03ZM123.49,141.01l-50.7-50.7c-18.28,21.76-30.17,49.07-32.76,79.05h71.72c1.84-10.4,5.92-20.02,11.75-28.35M141.02,123.48c8.32-5.83,17.95-9.91,28.35-11.75V40.02c-29.98,2.59-57.29,14.48-79.05,32.76,0,0,50.7,50.7,50.7,50.7ZM222.49,123.49l50.7-50.7c-21.76-18.27-49.07-30.16-79.04-32.74v71.72c10.4,1.83,20.02,5.92,28.34,11.73M323.49,169.36c-2.59-29.98-14.47-57.3-32.76-79.05l-50.7,50.7c5.84,8.31,9.91,17.94,11.75,28.35h71.71Z" style="fill:#67b3e2"/>
</g><g style="fill:#89a559; stroke:#89a559; mix-blend-mode:multiply"><!-- Generator: Adobe Illustrator 29.8.3, SVG Export Plug-In . SVG Version: 2.1.1 Build 3)  -->
  <rect x="172.1" y="19.11" width="21.03" height="21.03" transform="translate(151.97 212.07) rotate(-89.68)" style="fill:#89a559"/>
  <rect x="324.08" y="172.78" width="21.03" height="21.03" transform="translate(149.43 516.86) rotate(-89.68)" style="fill:#89a559"/>
  <rect x="170.41" y="324.75" width="21.03" height="21.03" transform="translate(-155.35 514.31) rotate(-89.68)" style="fill:#89a559"/>
  <rect x="18.43" y="171.08" width="21.03" height="21.03" transform="translate(-152.81 209.53) rotate(-89.68)" style="fill:#89a559"/>
  <rect x="279.9" y="64.47" width="21.03" height="21.03" transform="translate(31.19 225.87) rotate(-44.68)" style="fill:#89a559"/>
  <rect x="278.7" y="280.6" width="21.03" height="21.03" transform="translate(-121.12 287.48) rotate(-44.68)" style="fill:#89a559"/>
  <rect x="62.58" y="279.39" width="21.03" height="21.03" transform="translate(-182.72 135.17) rotate(-44.68)" style="fill:#89a559"/>
  <rect x="63.78" y="63.27" width="21.03" height="21.03" transform="translate(-30.41 73.56) rotate(-44.68)" style="fill:#89a559"/>
</g><g style="fill:#ffde2f; stroke:#ffde2f"><!-- Generator: Adobe Illustrator 29.8.3, SVG Export Plug-In . SVG Version: 2.1.1 Build 3)  -->
  <rect x="145.93" y="145.93" width="71.65" height="71.65" transform="translate(-75.29 181.76) rotate(-45)" style="fill:#ffde2f"/>
</g></g><g transform="translate(363.51,1454.04)"><g style="fill:#ffe9b3; stroke:#ffe9b3; mix-blend-mode:multiply"><!-- Generator: Adobe Illustrator 29.8.3, SVG Export Plug-In . SVG Version: 2.1.1 Build 3)  -->
  <rect x="81.54" y="81.54" width="200.44" height="200.44" transform="translate(-75.29 181.76) rotate(-45)" style="fill:#ffe9b3"/>
</g><g style="fill:#ffa881; stroke:#ffa881; mix-blend-mode:multiply"><!-- Generator: Adobe Illustrator 29.8.3, SVG Export Plug-In . SVG Version: 2.1.1 Build 3)  -->
  <path d="M40.48,195.5c2.87,27.99,13.34,55.33,31.48,78.61,2.62-2.24,5.18-4.57,7.65-7.05.43-.44.86-.88,1.29-1.32,25.26-26.18,7.14-70.53-29.12-70.72h-.66c-3.59,0-7.13.18-10.64.48" style="fill:#ffa881"/>
  <path d="M90.06,290.32c21.68,17.75,48.29,29.62,77.47,33.17.28-3.44.45-6.92.45-10.44,0-.62,0-1.24-.01-1.85-.52-36.5-44.48-54.95-70.25-29.28-.16.16-.32.31-.47.47-2.54,2.55-4.92,5.21-7.19,7.92" style="fill:#ffa881"/>
  <path d="M196.39,323.4c27.79-2.89,54.95-13.44,78.07-31.7-2.22-2.64-4.53-5.21-7.01-7.7-.43-.44-.87-.87-1.31-1.3-26-25.44-70.04-7.19-70.23,29.32v.66c0,3.61.18,7.18.48,10.72" style="fill:#ffa881"/>
  <path d="M290.55,273.48c17.63-21.83,29.42-48.63,32.94-78.01-3.42-.28-6.87-.46-10.36-.46-.61,0-1.23,0-1.84.01-36.25.53-54.57,44.79-29.07,70.74.15.16.31.32.47.47,2.54,2.55,5.17,4.95,7.86,7.24" style="fill:#ffa881"/>
  <path d="M323.03,168.01c-2.87-27.99-13.34-55.33-31.48-78.61-2.62,2.24-5.18,4.57-7.65,7.05-.43.44-.86.88-1.29,1.32-25.26,26.18-7.14,70.53,29.12,70.72h.66c3.59,0,7.13-.18,10.64-.48" style="fill:#ffa881"/>
  <path d="M273.46,73.2c-21.68-17.75-48.29-29.62-77.47-33.17-.28,3.44-.45,6.92-.45,10.44,0,.62,0,1.24.01,1.85.52,36.5,44.48,54.95,70.25,29.28.16-.16.32-.31.47-.47,2.54-2.55,4.92-5.21,7.19-7.92" style="fill:#ffa881"/>
  <path d="M167.13,40.11c-27.79,2.89-54.95,13.44-78.07,31.7,2.22,2.64,4.53,5.21,7.01,7.7.43.44.87.87,1.31,1.3,26,25.44,70.04,7.19,70.23-29.32v-.66c0-3.61-.18-7.18-.48-10.72" style="fill:#ffa881"/>
  <path d="M72.97,90.03c-17.63,21.83-29.42,48.63-32.94,78.01,3.42.28,6.87.46,10.36.46.61,0,1.23,0,1.84-.01,36.25-.53,54.57-44.79,29.07-70.74-.15-.16-.31-.32-.47-.47-2.54-2.55-5.17-4.95-7.86-7.24" style="fill:#ffa881"/>
</g><g style="fill:#647c43; stroke:#647c43; mix-blend-mode:multiply"><!-- Generator: Adobe Illustrator 29.8.3, SVG Export Plug-In . SVG Version: 2.1.1 Build 3)  -->
  <rect x="161.69" y=".45" width="39.68" height="39.69" style="fill:#647c43"/>
  <rect x="161.69" y="323.84" width="39.68" height="39.69" style="fill:#647c43"/>
  <rect x="-.45" y="162.59" width="39.69" height="39.69" style="fill:#647c43"/>
  <rect x="323.84" y="162.59" width="39.68" height="39.69" style="fill:#647c43"/>
</g><g style="fill:#ffc20e; stroke:#ffc20e"><!-- Generator: Adobe Illustrator 29.8.3, SVG Export Plug-In . SVG Version: 2.1.1 Build 3)  -->
  <rect x="145.93" y="145.93" width="71.65" height="71.65" transform="translate(-75.29 181.76) rotate(-45)" style="fill:#ffc20e"/>
</g></g><g transform="translate(727.02,1454.04)"><g style="fill:#ffe9b3; stroke:#ffe9b3; mix-blend-mode:multiply"><!-- Generator: Adobe Illustrator 29.8.3, SVG Export Plug-In . SVG Version: 2.1.1 Build 3)  -->
  <rect x="81.54" y="81.54" width="200.44" height="200.44" transform="translate(-75.29 181.76) rotate(-45)" style="fill:#ffe9b3"/>
</g><g style="fill:#ffa881; stroke:#ffa881; mix-blend-mode:multiply"><!-- Generator: Adobe Illustrator 29.8.3, SVG Export Plug-In . SVG Version: 2.1.1 Build 3)  -->
  <defs>
    <style>
      .st0 {
        fill: #231f20;
      }
    </style>
  </defs>
  <path class="st0" d="M194.15,194.15v129.34c68.69-5.93,123.41-60.65,129.35-129.34h-129.35ZM40.01,194.15c5.93,68.69,60.65,123.4,129.35,129.34v-129.34H40.01ZM169.35,169.36V40.03c-68.69,5.93-123.41,60.64-129.34,129.33h129.35-.01ZM323.49,169.36c-5.93-68.69-60.65-123.4-129.34-129.33v129.34h129.35-.01Z" style="fill:#ffa881"/>
</g><g style="fill:#b1ce6f; stroke:#b1ce6f; mix-blend-mode:multiply"><!-- Generator: Adobe Illustrator 29.8.3, SVG Export Plug-In . SVG Version: 2.1.1 Build 3)  -->
  <rect x="161.69" y=".45" width="39.68" height="39.69" style="fill:#b1ce6f"/>
  <rect x="161.69" y="323.84" width="39.68" height="39.69" style="fill:#b1ce6f"/>
  <rect x="-.45" y="162.59" width="39.69" height="39.69" style="fill:#b1ce6f"/>
  <rect x="323.84" y="162.59" width="39.68" height="39.69" style="fill:#b1ce6f"/>
</g><g style="fill:#544ba0; stroke:#544ba0"><!-- Generator: Adobe Illustrator 29.8.3, SVG Export Plug-In . SVG Version: 2.1.1 Build 3)  -->
  <rect x="145.93" y="145.93" width="71.65" height="71.65" transform="translate(-75.29 181.76) rotate(-45)" style="fill:#544ba0"/>
</g></g><g transform="translate(1090.53,1454.04)"><g style="fill:#ffe9b3; stroke:#ffe9b3; mix-blend-mode:multiply"><!-- Generator: Adobe Illustrator 29.8.3, SVG Export Plug-In . SVG Version: 2.1.1 Build 3)  -->
  <rect x="81.54" y="81.54" width="200.44" height="200.44" transform="translate(-75.29 181.76) rotate(-45)" style="fill:#ffe9b3"/>
</g><g style="fill:#4361bb; stroke:#4361bb; mix-blend-mode:multiply"><!-- Generator: Adobe Illustrator 29.8.3, SVG Export Plug-In . SVG Version: 2.1.1 Build 3)  -->
  <defs>
    <style>
      .st0 {
        fill: #231f20;
      }
    </style>
  </defs>
  <path class="st0" d="M194.15,194.15v129.34c68.69-5.93,123.41-60.65,129.35-129.34h-129.35ZM40.01,194.15c5.93,68.69,60.65,123.4,129.35,129.34v-129.34H40.01ZM169.35,169.36V40.03c-68.69,5.93-123.41,60.64-129.34,129.33h129.35-.01ZM323.49,169.36c-5.93-68.69-60.65-123.4-129.34-129.33v129.34h129.35-.01Z" style="fill:#4361bb"/>
</g><g style="fill:#b1ce6f; stroke:#b1ce6f; mix-blend-mode:multiply"><!-- Generator: Adobe Illustrator 29.8.3, SVG Export Plug-In . SVG Version: 2.1.1 Build 3)  -->
  <rect x="161.69" y=".45" width="39.68" height="39.69" style="fill:#b1ce6f"/>
  <rect x="161.69" y="323.84" width="39.68" height="39.69" style="fill:#b1ce6f"/>
  <rect x="-.45" y="162.59" width="39.69" height="39.69" style="fill:#b1ce6f"/>
  <rect x="323.84" y="162.59" width="39.68" height="39.69" style="fill:#b1ce6f"/>
</g><g style="fill:#544ba0; stroke:#544ba0"><!-- Generator: Adobe Illustrator 29.8.3, SVG Export Plug-In . SVG Version: 2.1.1 Build 3)  -->
  <rect x="145.93" y="145.93" width="71.65" height="71.65" transform="translate(-75.29 181.76) rotate(-45)" style="fill:#544ba0"/>
</g></g><g transform="translate(0.0,1817.55)"><g style="fill:#ffe9b3; stroke:#ffe9b3; mix-blend-mode:multiply"><!-- Generator: Adobe Illustrator 29.8.3, SVG Export Plug-In . SVG Version: 2.1.1 Build 3)  -->
  <path d="M182.11,288.22l-106.81-106.81,106.11-106.11,106.81,106.81-106.11,106.11ZM181.76,323.49l141.73-141.73L181.76,40.03,40.03,181.76l141.73,141.73Z" style="fill:#ffe9b3"/>
</g><g style="fill:#ff5003; stroke:#ff5003; mix-blend-mode:multiply"><!-- Generator: Adobe Illustrator 29.8.3, SVG Export Plug-In . SVG Version: 2.1.1 Build 3)  -->
  <path d="M74.19,88.95c.16-.17.28.37.43.56,23.63,31.01,4.74,76.55-33.92,81.79-.23.03-.47.06-.7.09,0,0,2.09-47.89,34.19-82.44Z" style="fill:#ff5003"/>
  <path d="M74.19,274.56c.16.17.28-.37.43-.56,23.63-31.01,4.74-76.55-33.92-81.79-.23-.03-.47-.06-.7-.09,0,0,2.09,47.89,34.19,82.44Z" style="fill:#ff5003"/>
  <path d="M88.95,289.3c-.17-.16.37-.28.56-.43,31.01-23.63,76.55-4.74,81.79,33.92.03.23.06.47.09.7,0,0-47.89-2.09-82.44-34.19Z" style="fill:#ff5003"/>
  <path d="M274.56,289.3c.17-.16-.37-.28-.56-.43-31.01-23.63-76.55-4.74-81.79,33.92-.03.23-.06.47-.09.7,0,0,47.89-2.09,82.44-34.19Z" style="fill:#ff5003"/>
  <path d="M289.33,274.56c-.16.17-.28-.37-.43-.56-23.63-31.01-4.74-76.55,33.92-81.79.23-.03.47-.06.7-.09,0,0-2.09,47.89-34.19,82.44Z" style="fill:#ff5003"/>
  <path d="M289.33,88.95c-.16-.17-.28.37-.43.56-23.63,31.01-4.74,76.55,33.92,81.79.23.03.47.06.7.09,0,0-2.09-47.89-34.19-82.44Z" style="fill:#ff5003"/>
  <path d="M274.55,74.22c.17.16-.37.28-.56.43-31.01,23.63-76.55,4.74-81.79-33.92-.03-.23-.06-.47-.09-.7,0,0,47.89,2.09,82.44,34.19Z" style="fill:#ff5003"/>
  <path d="M88.95,74.22c-.17.16.37.28.56.43,31.01,23.63,76.55,4.74,81.79-33.92.03-.23.06-.47.09-.7,0,0-47.89,2.09-82.44,34.19Z" style="fill:#ff5003"/>
</g><g style="fill:#e6b00f; stroke:#e6b00f"><!-- Generator: Adobe Illustrator 29.8.3, SVG Export Plug-In . SVG Version: 2.1.1 Build 3)  -->
  <rect x="145.93" y="145.93" width="71.65" height="71.65" transform="translate(-75.29 181.76) rotate(-45)" style="fill:#e6b00f"/>
</g></g><g transform="translate(363.51,1817.55)"><g style="fill:#ffe9b3; stroke:#ffe9b3; mix-blend-mode:multiply"><!-- Generator: Adobe Illustrator 29.8.3, SVG Export Plug-In . SVG Version: 2.1.1 Build 3)  -->
  <path d="M182.11,288.22l-106.81-106.81,106.11-106.11,106.81,106.81-106.11,106.11ZM181.76,323.49l141.73-141.73L181.76,40.03,40.03,181.76l141.73,141.73Z" style="fill:#ffe9b3"/>
</g><g style="fill:#fd7702; stroke:#fd7702; mix-blend-mode:multiply"><!-- Generator: Adobe Illustrator 29.8.3, SVG Export Plug-In . SVG Version: 2.1.1 Build 3)  -->
  <defs>
    <style>
      .st0 {
        fill: #231f20;
      }
    </style>
  </defs>
  <path class="st0" d="M323.26,169.11c-7.35-74.72-66.51-120.32-129.28-129.08,8.28,63.03,66.26,120.8,129.28,129.08" style="fill:#fd7702"/>
  <path class="st0" d="M169.54,40.03c-7.35,74.72-66.51,120.32-129.28,129.08,8.28-63.03,66.26-120.8,129.28-129.08" style="fill:#fd7702"/>
  <path class="st0" d="M323.26,194.41c-7.35,74.72-66.51,120.32-129.28,129.08,8.28-63.03,66.26-120.8,129.28-129.08" style="fill:#fd7702"/>
  <path class="st0" d="M169.54,323.49c-7.35-74.72-66.51-120.32-129.28-129.08,8.28,63.03,66.26,120.8,129.28,129.08" style="fill:#fd7702"/>
</g><g style="fill:#766fb3; stroke:#766fb3"><!-- Generator: Adobe Illustrator 29.8.3, SVG Export Plug-In . SVG Version: 2.1.1 Build 3)  -->
  <rect x="145.93" y="145.93" width="71.65" height="71.65" transform="translate(-75.29 181.76) rotate(-45)" style="fill:#766fb3"/>
</g></g><g transform="translate(727.02,1817.55)"><g style="fill:#ffe9b3; stroke:#ffe9b3; mix-blend-mode:multiply"><!-- Generator: Adobe Illustrator 29.8.3, SVG Export Plug-In . SVG Version: 2.1.1 Build 3)  -->
  <rect x="81.54" y="81.54" width="200.44" height="200.44" transform="translate(-75.29 181.76) rotate(-45)" style="fill:#ffe9b3"/>
</g><g style="fill:#ff5003; stroke:#ff5003; mix-blend-mode:multiply"><!-- Generator: Adobe Illustrator 29.8.3, SVG Export Plug-In . SVG Version: 2.1.1 Build 3)  -->
  <path d="M208.15,323.49c54.41-17.95,97.39-60.93,115.34-115.34-54.57,17.68-97.66,60.77-115.34,115.34" style="fill:#ff5003"/>
  <path d="M323.49,155.37c-17.95-54.41-60.93-97.39-115.34-115.34,17.68,54.57,60.77,97.66,115.34,115.34" style="fill:#ff5003"/>
  <path d="M40.03,155.37c54.57-17.68,97.66-60.77,115.34-115.34-54.41,17.95-97.39,60.93-115.34,115.34" style="fill:#ff5003"/>
  <path d="M40.03,208.15c17.95,54.41,60.93,97.39,115.34,115.34-17.68-54.57-60.77-97.66-115.34-115.34" style="fill:#ff5003"/>
</g><g style="fill:#89a559; stroke:#89a559; mix-blend-mode:multiply"><!-- Generator: Adobe Illustrator 29.8.3, SVG Export Plug-In . SVG Version: 2.1.1 Build 3)  -->
  <rect x="161.69" y=".45" width="39.68" height="39.69" style="fill:#89a559"/>
  <rect x="161.69" y="323.84" width="39.68" height="39.69" style="fill:#89a559"/>
  <rect x="-.45" y="162.59" width="39.69" height="39.69" style="fill:#89a559"/>
  <rect x="323.84" y="162.59" width="39.68" height="39.69" style="fill:#89a559"/>
</g><g style="fill:#ffde2f; stroke:#ffde2f"><!-- Generator: Adobe Illustrator 29.8.3, SVG Export Plug-In . SVG Version: 2.1.1 Build 3)  -->
  <rect x="145.93" y="145.93" width="71.65" height="71.65" transform="translate(-75.29 181.76) rotate(-45)" style="fill:#ffde2f"/>
</g></g><g transform="translate(1090.53,1817.55)"><g style="fill:#ffe9b3; stroke:#ffe9b3; mix-blend-mode:multiply"><!-- Generator: Adobe Illustrator 29.8.3, SVG Export Plug-In . SVG Version: 2.1.1 Build 3)  -->
  <rect x="81.54" y="81.54" width="200.44" height="200.44" transform="translate(-75.29 181.76) rotate(-45)" style="fill:#ffe9b3"/>
</g><g style="fill:#ff8e00; stroke:#ff8e00; mix-blend-mode:multiply"><!-- Generator: Adobe Illustrator 29.8.3, SVG Export Plug-In . SVG Version: 2.1.1 Build 3)  -->
  <defs>
    <style>
      .st0 {
        fill: #231f20;
      }
    </style>
  </defs>
  <path class="st0" d="M194.7,40.03c-.26,3.2-.43,6.43-.43,9.71,0,64.88,56.65,119.51,121.54,119.51,2.5,0,4.97-.11,7.44-.26-6.68-66.2-62.73-121-128.55-128.95" style="fill:#ff8e00"/>
  <path class="st0" d="M169.08,49.73c0,64.88-56.65,119.51-121.54,119.51-2.5,0-4.97-.11-7.44-.26,6.68-66.2,62.73-121,128.55-128.95" style="fill:#ff8e00"/>
  <path class="st0" d="M194.86,323.49c-.26-3.2-.43-6.43-.43-9.71,0-64.88,56.65-119.51,121.54-119.51,2.5,0,4.97.11,7.44.26-6.68,66.2-62.73,121-128.55,128.95" style="fill:#ff8e00"/>
  <path class="st0" d="M169.24,313.78c0-64.88-56.65-119.51-121.54-119.51-2.5,0-4.97.11-7.44.26,6.68,66.2,62.73,121,128.55,128.95" style="fill:#ff8e00"/>
</g><g style="fill:#89a559; stroke:#89a559; mix-blend-mode:multiply"><!-- Generator: Adobe Illustrator 29.8.3, SVG Export Plug-In . SVG Version: 2.1.1 Build 3)  -->
  <rect x="172.09" y="19.1" width="21.03" height="21.03" transform="translate(151.98 212.06) rotate(-89.68)" style="fill:#89a559"/>
  <rect x="324.06" y="172.77" width="21.03" height="21.03" transform="translate(149.44 516.84) rotate(-89.68)" style="fill:#89a559"/>
  <rect x="170.4" y="324.74" width="21.03" height="21.03" transform="translate(-155.34 514.3) rotate(-89.68)" style="fill:#89a559"/>
  <rect x="18.43" y="171.07" width="21.03" height="21.03" transform="translate(-152.8 209.53) rotate(-89.68)" style="fill:#89a559"/>
</g><g style="fill:#ccc9e3; stroke:#ccc9e3"><!-- Generator: Adobe Illustrator 29.8.3, SVG Export Plug-In . SVG Version: 2.1.1 Build 3)  -->
  <rect x="145.93" y="145.93" width="71.65" height="71.65" transform="translate(-75.29 181.76) rotate(-45)" style="fill:#ccc9e3"/>
</g></g><g transform="translate(0.0,2181.06)"><g style="fill:#ffe9b3; stroke:#ffe9b3; mix-blend-mode:multiply"><!-- Generator: Adobe Illustrator 29.8.3, SVG Export Plug-In . SVG Version: 2.1.1 Build 3)  -->
  <rect x="81.54" y="81.54" width="200.44" height="200.44" transform="translate(-75.29 181.76) rotate(-45)" style="fill:#ffe9b3"/>
</g><g style="fill:#4361bb; stroke:#4361bb; mix-blend-mode:multiply"><!-- Generator: Adobe Illustrator 29.8.3, SVG Export Plug-In . SVG Version: 2.1.1 Build 3)  -->
  <defs>
    <style>
      .st0 {
        fill: #231f20;
      }
    </style>
  </defs>
  <path class="st0" d="M194.15,194.15v129.34c68.69-5.93,123.41-60.65,129.35-129.34h-129.35ZM40.01,194.15c5.93,68.69,60.65,123.4,129.35,129.34v-129.34H40.01ZM169.35,169.36V40.03c-68.69,5.93-123.41,60.64-129.34,129.33h129.35-.01ZM323.49,169.36c-5.93-68.69-60.65-123.4-129.34-129.33v129.34h129.35-.01Z" style="fill:#4361bb"/>
</g><g style="fill:#647c43; stroke:#647c43; mix-blend-mode:multiply"><!-- Generator: Adobe Illustrator 29.8.3, SVG Export Plug-In . SVG Version: 2.1.1 Build 3)  -->
  <rect x="161.69" y=".45" width="39.68" height="39.69" style="fill:#647c43"/>
  <rect x="161.69" y="323.84" width="39.68" height="39.69" style="fill:#647c43"/>
  <rect x="-.45" y="162.59" width="39.69" height="39.69" style="fill:#647c43"/>
  <rect x="323.84" y="162.59" width="39.68" height="39.69" style="fill:#647c43"/>
</g><g style="fill:#9893c6; stroke:#9893c6"><!-- Generator: Adobe Illustrator 29.8.3, SVG Export Plug-In . SVG Version: 2.1.1 Build 3)  -->
  <rect x="145.93" y="145.93" width="71.65" height="71.65" transform="translate(-75.29 181.76) rotate(-45)" style="fill:#9893c6"/>
</g></g><g transform="translate(363.51,2181.06)"><g style="fill:#ffe9b3; stroke:#ffe9b3; mix-blend-mode:multiply"><!-- Generator: Adobe Illustrator 29.8.3, SVG Export Plug-In . SVG Version: 2.1.1 Build 3)  -->
  <rect x="81.54" y="81.54" width="200.44" height="200.44" transform="translate(-75.29 181.76) rotate(-45)" style="fill:#ffe9b3"/>
</g><g style="fill:#4c8cc5; stroke:#4c8cc5; mix-blend-mode:multiply"><!-- Generator: Adobe Illustrator 29.8.3, SVG Export Plug-In . SVG Version: 2.1.1 Build 3)  -->
  <defs>
    <style>
      .st0 {
        fill: #231f20;
      }
    </style>
  </defs>
  <path class="st0" d="M206.84,249.15v74.34c59.39-10.44,106.24-57.27,116.68-116.65h-74.34c-7.29,19.52-22.79,35.04-42.34,42.32M40,206.84c10.44,59.39,57.28,106.21,116.68,116.65v-74.34c-19.55-7.28-35.05-22.79-42.34-42.32H40ZM156.68,114.36V40.03c-59.39,10.44-106.24,57.26-116.68,116.65h74.34c7.29-19.52,22.79-35.04,42.34-42.32M323.52,156.68c-10.44-59.39-57.29-106.21-116.68-116.65v74.34c19.54,7.28,35.05,22.79,42.34,42.32h74.34Z" style="fill:#4c8cc5"/>
</g><g style="fill:#9893c6; stroke:#9893c6"><!-- Generator: Adobe Illustrator 29.8.3, SVG Export Plug-In . SVG Version: 2.1.1 Build 3)  -->
  <rect x="145.93" y="145.93" width="71.65" height="71.65" transform="translate(-75.29 181.76) rotate(-45)" style="fill:#9893c6"/>
</g></g><g transform="translate(727.02,2181.06)"><g style="fill:#ffe9b3; stroke:#ffe9b3; mix-blend-mode:multiply"><!-- Generator: Adobe Illustrator 29.8.3, SVG Export Plug-In . SVG Version: 2.1.1 Build 3)  -->
  <path d="M182.57,253.31l-72.36-72.36,70.74-70.74,72.36,72.36-70.74,70.74h0ZM181.76,323.49l141.73-141.73L181.76,40.03,40.03,181.76l141.73,141.73Z" style="fill:#ffe9b3"/>
</g><g style="fill:#ff5003; stroke:#ff5003; mix-blend-mode:multiply"><!-- Generator: Adobe Illustrator 29.8.3, SVG Export Plug-In . SVG Version: 2.1.1 Build 3)  -->
  <path d="M208.15,323.49c54.41-17.95,97.39-60.93,115.34-115.34-54.57,17.68-97.66,60.77-115.34,115.34" style="fill:#ff5003"/>
  <path d="M323.49,155.37c-17.95-54.41-60.93-97.39-115.34-115.34,17.68,54.57,60.77,97.66,115.34,115.34" style="fill:#ff5003"/>
  <path d="M40.03,155.37c54.57-17.68,97.66-60.77,115.34-115.34-54.41,17.95-97.39,60.93-115.34,115.34" style="fill:#ff5003"/>
  <path d="M40.03,208.15c17.95,54.41,60.93,97.39,115.34,115.34-17.68-54.57-60.77-97.66-115.34-115.34" style="fill:#ff5003"/>
</g><g style="fill:#eba1b1; stroke:#eba1b1; mix-blend-mode:multiply"><!-- Generator: Adobe Illustrator 29.8.3, SVG Export Plug-In . SVG Version: 2.1.1 Build 3)  -->
  <rect x="172.09" y="19.1" width="21.03" height="21.03" transform="translate(151.98 212.06) rotate(-89.68)" style="fill:#eba1b1"/>
  <rect x="324.06" y="172.77" width="21.03" height="21.03" transform="translate(149.44 516.84) rotate(-89.68)" style="fill:#eba1b1"/>
  <rect x="170.4" y="324.74" width="21.03" height="21.03" transform="translate(-155.34 514.3) rotate(-89.68)" style="fill:#eba1b1"/>
  <rect x="18.43" y="171.07" width="21.03" height="21.03" transform="translate(-152.8 209.53) rotate(-89.68)" style="fill:#eba1b1"/>
</g><g style="fill:#766fb3; stroke:#766fb3"><!-- Generator: Adobe Illustrator 29.8.3, SVG Export Plug-In . SVG Version: 2.1.1 Build 3)  -->
  <rect x="145.93" y="145.93" width="71.65" height="71.65" transform="translate(-75.29 181.76) rotate(-45)" style="fill:#766fb3"/>
</g></g><g transform="translate(1090.53,2181.06)"><g style="fill:#ffe9b3; stroke:#ffe9b3; mix-blend-mode:multiply"><!-- Generator: Adobe Illustrator 29.8.3, SVG Export Plug-In . SVG Version: 2.1.1 Build 3)  -->
  <path d="M182.11,288.22l-106.81-106.81,106.11-106.11,106.81,106.81-106.11,106.11ZM181.76,323.49l141.73-141.73L181.76,40.03,40.03,181.76l141.73,141.73Z" style="fill:#ffe9b3"/>
</g><g style="fill:#fd7702; stroke:#fd7702; mix-blend-mode:multiply"><!-- Generator: Adobe Illustrator 29.8.3, SVG Export Plug-In . SVG Version: 2.1.1 Build 3)  -->
  <path d="M74.19,88.95c.16-.17.28.37.43.56,23.63,31.01,4.74,76.55-33.92,81.79-.23.03-.47.06-.7.09,0,0,2.09-47.89,34.19-82.44Z" style="fill:#fd7702"/>
  <path d="M74.19,274.56c.16.17.28-.37.43-.56,23.63-31.01,4.74-76.55-33.92-81.79-.23-.03-.47-.06-.7-.09,0,0,2.09,47.89,34.19,82.44Z" style="fill:#fd7702"/>
  <path d="M88.95,289.3c-.17-.16.37-.28.56-.43,31.01-23.63,76.55-4.74,81.79,33.92.03.23.06.47.09.7,0,0-47.89-2.09-82.44-34.19Z" style="fill:#fd7702"/>
  <path d="M274.56,289.3c.17-.16-.37-.28-.56-.43-31.01-23.63-76.55-4.74-81.79,33.92-.03.23-.06.47-.09.7,0,0,47.89-2.09,82.44-34.19Z" style="fill:#fd7702"/>
  <path d="M289.33,274.56c-.16.17-.28-.37-.43-.56-23.63-31.01-4.74-76.55,33.92-81.79.23-.03.47-.06.7-.09,0,0-2.09,47.89-34.19,82.44Z" style="fill:#fd7702"/>
  <path d="M289.33,88.95c-.16-.17-.28.37-.43.56-23.63,31.01-4.74,76.55,33.92,81.79.23.03.47.06.7.09,0,0-2.09-47.89-34.19-82.44Z" style="fill:#fd7702"/>
  <path d="M274.55,74.22c.17.16-.37.28-.56.43-31.01,23.63-76.55,4.74-81.79-33.92-.03-.23-.06-.47-.09-.7,0,0,47.89,2.09,82.44,34.19Z" style="fill:#fd7702"/>
  <path d="M88.95,74.22c-.17.16.37.28.56.43,31.01,23.63,76.55,4.74,81.79-33.92.03-.23.06-.47.09-.7,0,0-47.89,2.09-82.44,34.19Z" style="fill:#fd7702"/>
</g><g style="fill:#f1c4d6; stroke:#f1c4d6; mix-blend-mode:multiply"><!-- Generator: Adobe Illustrator 29.8.3, SVG Export Plug-In . SVG Version: 2.1.1 Build 3)  -->
  <rect x="172.09" y="19.1" width="21.03" height="21.03" transform="translate(151.98 212.06) rotate(-89.68)" style="fill:#f1c4d6"/>
  <rect x="324.06" y="172.77" width="21.03" height="21.03" transform="translate(149.44 516.84) rotate(-89.68)" style="fill:#f1c4d6"/>
  <rect x="170.4" y="324.74" width="21.03" height="21.03" transform="translate(-155.34 514.3) rotate(-89.68)" style="fill:#f1c4d6"/>
  <rect x="18.43" y="171.07" width="21.03" height="21.03" transform="translate(-152.8 209.53) rotate(-89.68)" style="fill:#f1c4d6"/>
</g><g style="fill:#ffeb96; stroke:#ffeb96"><!-- Generator: Adobe Illustrator 29.8.3, SVG Export Plug-In . SVG Version: 2.1.1 Build 3)  -->
  <rect x="145.93" y="145.93" width="71.65" height="71.65" transform="translate(-75.29 181.76) rotate(-45)" style="fill:#ffeb96"/>
</g></g></svg>