<?xml version='1.0' encoding='UTF-8'?>
<svg xmlns="http://www.w3.org/2000/svg" style="isolation:isolate" viewBox="0 0 363.51 363.51"><g style="fill:#ffe9b3; stroke:#ffe9b3; mix-blend-mode:multiply"><!-- Generator: Adobe Illustrator 29.8.3, SVG Export Plug-In . SVG Version: 2.1.1 Build 3)  -->
  <path d="M182.11,288.22l-106.81-106.81,106.11-106.11,106.81,106.81-106.11,106.11ZM181.76,323.49l141.73-141.73L181.76,40.03,40.03,181.76l141.73,141.73Z" style="fill:#ffe9b3"/>
</g><g style="fill:#1a2270; stroke:#1a2270; mix-blend-mode:multiply"><!-- Generator: Adobe Illustrator 29.8.3, SVG Export Plug-In . SVG Version: 2.1.1 Build 3)  -->
  <defs>
    <style>
      .st0 {
        fill: #231f20;
      }
    </style>
  </defs>
  <path class="st0" d="M206.84,206.84v116.65c59.39-10.44,106.24-57.27,116.68-116.65h-116.68ZM40,206.84c10.44,59.39,57.28,106.21,116.68,116.65v-116.65H40ZM156.68,156.68V40.03c-59.39,10.44-106.24,57.26-116.68,116.65h116.68ZM323.52,156.68c-10.44-59.39-57.29-106.21-116.68-116.65v116.65h116.68Z" style="fill:#1a2270"/>
</g><g style="fill:#ccc9e3; stroke:#ccc9e3"><!-- Generator: Adobe Illustrator 29.8.3, SVG Export Plug-In . SVG Version: 2.1.1 Build 3)  -->
  <rect x="145.93" y="145.93" width="71.65" height="71.65" transform="translate(-75.29 181.76) rotate(-45)" style="fill:#ccc9e3"/>
</g></svg>