<?xml version='1.0' encoding='UTF-8'?>
<svg xmlns="http://www.w3.org/2000/svg" style="isolation:isolate" viewBox="0 0 363.51 363.51"><g style="fill:#ffe9b3; stroke:#ffe9b3; mix-blend-mode:multiply"><!-- Generator: Adobe Illustrator 29.8.3, SVG Export Plug-In . SVG Version: 2.1.1 Build 3)  -->
  <path d="M182.57,253.31l-72.36-72.36,70.74-70.74,72.36,72.36-70.74,70.74h0ZM181.76,323.49l141.73-141.73L181.76,40.03,40.03,181.76l141.73,141.73Z" style="fill:#ffe9b3"/>
</g><g style="fill:#67b3e2; stroke:#67b3e2; mix-blend-mode:multiply"><!-- Generator: Adobe Illustrator 29.8.3, SVG Export Plug-In . SVG Version: 2.1.1 Build 3)  -->
  <defs>
    <style>
      .st0 {
        fill: #231f20;
      }
    </style>
  </defs>
  <path class="st0" d="M240.03,222.49l50.7,50.7c18.28-21.76,30.17-49.08,32.76-79.05h-71.72c-1.84,10.4-5.92,20.02-11.75,28.35M222.5,240.02c-8.32,5.83-17.95,9.91-28.35,11.75v71.72c29.98-2.59,57.29-14.48,79.05-32.76l-50.7-50.7h0ZM141.03,240.01l-50.7,50.7c21.76,18.27,49.06,30.16,79.04,32.75v-71.72c-10.4-1.83-20.02-5.92-28.34-11.73M40.03,194.14c2.59,29.98,14.47,57.3,32.76,79.05l50.7-50.7c-5.84-8.31-9.91-17.94-11.75-28.35H40.03ZM123.49,141.01l-50.7-50.7c-18.28,21.76-30.17,49.07-32.76,79.05h71.72c1.84-10.4,5.92-20.02,11.75-28.35M141.02,123.48c8.32-5.83,17.95-9.91,28.35-11.75V40.02c-29.98,2.59-57.29,14.48-79.05,32.76,0,0,50.7,50.7,50.7,50.7ZM222.49,123.49l50.7-50.7c-21.76-18.27-49.07-30.16-79.04-32.74v71.72c10.4,1.83,20.02,5.92,28.34,11.73M323.49,169.36c-2.59-29.98-14.47-57.3-32.76-79.05l-50.7,50.7c5.84,8.31,9.91,17.94,11.75,28.35h71.71Z" style="fill:#67b3e2"/>
</g><g style="fill:#89a559; stroke:#89a559; mix-blend-mode:multiply"><!-- Generator: Adobe Illustrator 29.8.3, SVG Export Plug-In . SVG Version: 2.1.1 Build 3)  -->
  <rect x="172.1" y="19.11" width="21.03" height="21.03" transform="translate(151.97 212.07) rotate(-89.68)" style="fill:#89a559"/>
  <rect x="324.08" y="172.78" width="21.03" height="21.03" transform="translate(149.43 516.86) rotate(-89.68)" style="fill:#89a559"/>
  <rect x="170.41" y="324.75" width="21.03" height="21.03" transform="translate(-155.35 514.31) rotate(-89.68)" style="fill:#89a559"/>
  <rect x="18.43" y="171.08" width="21.03" height="21.03" transform="translate(-152.81 209.53) rotate(-89.68)" style="fill:#89a559"/>
  <rect x="279.9" y="64.47" width="21.03" height="21.03" transform="translate(31.19 225.87) rotate(-44.68)" style="fill:#89a559"/>
  <rect x="278.7" y="280.6" width="21.03" height="21.03" transform="translate(-121.12 287.48) rotate(-44.68)" style="fill:#89a559"/>
  <rect x="62.58" y="279.39" width="21.03" height="21.03" transform="translate(-182.72 135.17) rotate(-44.68)" style="fill:#89a559"/>
  <rect x="63.78" y="63.27" width="21.03" height="21.03" transform="translate(-30.41 73.56) rotate(-44.68)" style="fill:#89a559"/>
</g><g style="fill:#ffde2f; stroke:#ffde2f"><!-- Generator: Adobe Illustrator 29.8.3, SVG Export Plug-In . SVG Version: 2.1.1 Build 3)  -->
  <rect x="145.93" y="145.93" width="71.65" height="71.65" transform="translate(-75.29 181.76) rotate(-45)" style="fill:#ffde2f"/>
</g></svg>