<?xml version='1.0' encoding='UTF-8'?>
<svg xmlns="http://www.w3.org/2000/svg" style="isolation:isolate" viewBox="0 0 363.51 363.51"><g style="fill:#ffe9b3; stroke:#ffe9b3; mix-blend-mode:multiply"><!-- Generator: Adobe Illustrator 29.8.3, SVG Export Plug-In . SVG Version: 2.1.1 Build 3)  -->
  <path d="M182.11,288.22l-106.81-106.81,106.11-106.11,106.81,106.81-106.11,106.11ZM181.76,323.49l141.73-141.73L181.76,40.03,40.03,181.76l141.73,141.73Z" style="fill:#ffe9b3"/>
</g><g style="fill:#fd7702; stroke:#fd7702; mix-blend-mode:multiply"><!-- Generator: Adobe Illustrator 29.8.3, SVG Export Plug-In . SVG Version: 2.1.1 Build 3)  -->
  <defs>
    <style>
      .st0 {
        fill: #231f20;
      }
    </style>
  </defs>
  <path class="st0" d="M323.26,169.11c-7.35-74.72-66.51-120.32-129.28-129.08,8.28,63.03,66.26,120.8,129.28,129.08" style="fill:#fd7702"/>
  <path class="st0" d="M169.54,40.03c-7.35,74.72-66.51,120.32-129.28,129.08,8.28-63.03,66.26-120.8,129.28-129.08" style="fill:#fd7702"/>
  <path class="st0" d="M323.26,194.41c-7.35,74.72-66.51,120.32-129.28,129.08,8.28-63.03,66.26-120.8,129.28-129.08" style="fill:#fd7702"/>
  <path class="st0" d="M169.54,323.49c-7.35-74.72-66.51-120.32-129.28-129.08,8.28,63.03,66.26,120.8,129.28,129.08" style="fill:#fd7702"/>
</g><g style="fill:#766fb3; stroke:#766fb3"><!-- Generator: Adobe Illustrator 29.8.3, SVG Export Plug-In . SVG Version: 2.1.1 Build 3)  -->
  <rect x="145.93" y="145.93" width="71.65" height="71.65" transform="translate(-75.29 181.76) rotate(-45)" style="fill:#766fb3"/>
</g></svg>