<?xml version='1.0' encoding='UTF-8'?>
<svg xmlns="http://www.w3.org/2000/svg" style="isolation:isolate" viewBox="0 0 363.51 363.51"><g style="fill:#ffe9b3; stroke:#ffe9b3; mix-blend-mode:multiply"><!-- Generator: Adobe Illustrator 29.8.3, SVG Export Plug-In . SVG Version: 2.1.1 Build 3)  -->
  <rect x="81.54" y="81.54" width="200.44" height="200.44" transform="translate(-75.29 181.76) rotate(-45)" style="fill:#ffe9b3"/>
</g><g style="fill:#ff5003; stroke:#ff5003; mix-blend-mode:multiply"><!-- Generator: Adobe Illustrator 29.8.3, SVG Export Plug-In . SVG Version: 2.1.1 Build 3)  -->
  <path d="M208.15,323.49c54.41-17.95,97.39-60.93,115.34-115.34-54.57,17.68-97.66,60.77-115.34,115.34" style="fill:#ff5003"/>
  <path d="M323.49,155.37c-17.95-54.41-60.93-97.39-115.34-115.34,17.68,54.57,60.77,97.66,115.34,115.34" style="fill:#ff5003"/>
  <path d="M40.03,155.37c54.57-17.68,97.66-60.77,115.34-115.34-54.41,17.95-97.39,60.93-115.34,115.34" style="fill:#ff5003"/>
  <path d="M40.03,208.15c17.95,54.41,60.93,97.39,115.34,115.34-17.68-54.57-60.77-97.66-115.34-115.34" style="fill:#ff5003"/>
</g><g style="fill:#89a559; stroke:#89a559; mix-blend-mode:multiply"><!-- Generator: Adobe Illustrator 29.8.3, SVG Export Plug-In . SVG Version: 2.1.1 Build 3)  -->
  <rect x="161.69" y=".45" width="39.68" height="39.69" style="fill:#89a559"/>
  <rect x="161.69" y="323.84" width="39.68" height="39.69" style="fill:#89a559"/>
  <rect x="-.45" y="162.59" width="39.69" height="39.69" style="fill:#89a559"/>
  <rect x="323.84" y="162.59" width="39.68" height="39.69" style="fill:#89a559"/>
</g><g style="fill:#ffde2f; stroke:#ffde2f"><!-- Generator: Adobe Illustrator 29.8.3, SVG Export Plug-In . SVG Version: 2.1.1 Build 3)  -->
  <rect x="145.93" y="145.93" width="71.65" height="71.65" transform="translate(-75.29 181.76) rotate(-45)" style="fill:#ffde2f"/>
</g></svg>