<?xml version='1.0' encoding='UTF-8'?>
<svg xmlns="http://www.w3.org/2000/svg" style="isolation:isolate" viewBox="0 0 363.51 363.51"><g style="fill:#ffe9b3; stroke:#ffe9b3; mix-blend-mode:multiply"><!-- Generator: Adobe Illustrator 29.8.3, SVG Export Plug-In . SVG Version: 2.1.1 Build 3)  -->
  <rect x="81.54" y="81.54" width="200.44" height="200.44" transform="translate(-75.29 181.76) rotate(-45)" style="fill:#ffe9b3"/>
</g><g style="fill:#ff8e00; stroke:#ff8e00; mix-blend-mode:multiply"><!-- Generator: Adobe Illustrator 29.8.3, SVG Export Plug-In . SVG Version: 2.1.1 Build 3)  -->
  <defs>
    <style>
      .st0 {
        fill: #231f20;
      }
    </style>
  </defs>
  <path class="st0" d="M194.7,40.03c-.26,3.2-.43,6.43-.43,9.71,0,64.88,56.65,119.51,121.54,119.51,2.5,0,4.97-.11,7.44-.26-6.68-66.2-62.73-121-128.55-128.95" style="fill:#ff8e00"/>
  <path class="st0" d="M169.08,49.73c0,64.88-56.65,119.51-121.54,119.51-2.5,0-4.97-.11-7.44-.26,6.68-66.2,62.73-121,128.55-128.95" style="fill:#ff8e00"/>
  <path class="st0" d="M194.86,323.49c-.26-3.2-.43-6.43-.43-9.71,0-64.88,56.65-119.51,121.54-119.51,2.5,0,4.97.11,7.44.26-6.68,66.2-62.73,121-128.55,128.95" style="fill:#ff8e00"/>
  <path class="st0" d="M169.24,313.78c0-64.88-56.65-119.51-121.54-119.51-2.5,0-4.97.11-7.44.26,6.68,66.2,62.73,121,128.55,128.95" style="fill:#ff8e00"/>
</g><g style="fill:#89a559; stroke:#89a559; mix-blend-mode:multiply"><!-- Generator: Adobe Illustrator 29.8.3, SVG Export Plug-In . SVG Version: 2.1.1 Build 3)  -->
  <rect x="172.09" y="19.1" width="21.03" height="21.03" transform="translate(151.98 212.06) rotate(-89.68)" style="fill:#89a559"/>
  <rect x="324.06" y="172.77" width="21.03" height="21.03" transform="translate(149.44 516.84) rotate(-89.68)" style="fill:#89a559"/>
  <rect x="170.4" y="324.74" width="21.03" height="21.03" transform="translate(-155.34 514.3) rotate(-89.68)" style="fill:#89a559"/>
  <rect x="18.43" y="171.07" width="21.03" height="21.03" transform="translate(-152.8 209.53) rotate(-89.68)" style="fill:#89a559"/>
</g><g style="fill:#ccc9e3; stroke:#ccc9e3"><!-- Generator: Adobe Illustrator 29.8.3, SVG Export Plug-In . SVG Version: 2.1.1 Build 3)  -->
  <rect x="145.93" y="145.93" width="71.65" height="71.65" transform="translate(-75.29 181.76) rotate(-45)" style="fill:#ccc9e3"/>
</g></svg>