<?xml version='1.0' encoding='UTF-8'?>
<svg xmlns="http://www.w3.org/2000/svg" style="isolation:isolate" viewBox="0 0 363.51 363.51"><g style="fill:#ffe9b3; stroke:#ffe9b3; mix-blend-mode:multiply"><!-- Generator: Adobe Illustrator 29.8.3, SVG Export Plug-In . SVG Version: 2.1.1 Build 3)  -->
  <rect x="81.54" y="81.54" width="200.44" height="200.44" transform="translate(-75.29 181.76) rotate(-45)" style="fill:#ffe9b3"/>
</g><g style="fill:#4361bb; stroke:#4361bb; mix-blend-mode:multiply"><!-- Generator: Adobe Illustrator 29.8.3, SVG Export Plug-In . SVG Version: 2.1.1 Build 3)  -->
  <defs>
    <style>
      .st0 {
        fill: #231f20;
      }
    </style>
  </defs>
  <path class="st0" d="M194.15,194.15v129.34c68.69-5.93,123.41-60.65,129.35-129.34h-129.35ZM40.01,194.15c5.93,68.69,60.65,123.4,129.35,129.34v-129.34H40.01ZM169.35,169.36V40.03c-68.69,5.93-123.41,60.64-129.34,129.33h129.35-.01ZM323.49,169.36c-5.93-68.69-60.65-123.4-129.34-129.33v129.34h129.35-.01Z" style="fill:#4361bb"/>
</g><g style="fill:#647c43; stroke:#647c43; mix-blend-mode:multiply"><!-- Generator: Adobe Illustrator 29.8.3, SVG Export Plug-In . SVG Version: 2.1.1 Build 3)  -->
  <rect x="161.69" y=".45" width="39.68" height="39.69" style="fill:#647c43"/>
  <rect x="161.69" y="323.84" width="39.68" height="39.69" style="fill:#647c43"/>
  <rect x="-.45" y="162.59" width="39.69" height="39.69" style="fill:#647c43"/>
  <rect x="323.84" y="162.59" width="39.68" height="39.69" style="fill:#647c43"/>
</g><g style="fill:#9893c6; stroke:#9893c6"><!-- Generator: Adobe Illustrator 29.8.3, SVG Export Plug-In . SVG Version: 2.1.1 Build 3)  -->
  <rect x="145.93" y="145.93" width="71.65" height="71.65" transform="translate(-75.29 181.76) rotate(-45)" style="fill:#9893c6"/>
</g></svg>