<?xml version='1.0' encoding='UTF-8'?>
<svg xmlns="http://www.w3.org/2000/svg" style="isolation:isolate" viewBox="0 0 363.51 363.51"><g style="fill:#ffe9b3; stroke:#ffe9b3; mix-blend-mode:multiply"><!-- Generator: Adobe Illustrator 29.8.3, SVG Export Plug-In . SVG Version: 2.1.1 Build 3)  -->
  <path d="M182.57,253.31l-72.36-72.36,70.74-70.74,72.36,72.36-70.74,70.74h0ZM181.76,323.49l141.73-141.73L181.76,40.03,40.03,181.76l141.73,141.73Z" style="fill:#ffe9b3"/>
</g><g style="fill:#ff5003; stroke:#ff5003; mix-blend-mode:multiply"><!-- Generator: Adobe Illustrator 29.8.3, SVG Export Plug-In . SVG Version: 2.1.1 Build 3)  -->
  <path d="M208.15,323.49c54.41-17.95,97.39-60.93,115.34-115.34-54.57,17.68-97.66,60.77-115.34,115.34" style="fill:#ff5003"/>
  <path d="M323.49,155.37c-17.95-54.41-60.93-97.39-115.34-115.34,17.68,54.57,60.77,97.66,115.34,115.34" style="fill:#ff5003"/>
  <path d="M40.03,155.37c54.57-17.68,97.66-60.77,115.34-115.34-54.41,17.95-97.39,60.93-115.34,115.34" style="fill:#ff5003"/>
  <path d="M40.03,208.15c17.95,54.41,60.93,97.39,115.34,115.34-17.68-54.57-60.77-97.66-115.34-115.34" style="fill:#ff5003"/>
</g><g style="fill:#eba1b1; stroke:#eba1b1; mix-blend-mode:multiply"><!-- Generator: Adobe Illustrator 29.8.3, SVG Export Plug-In . SVG Version: 2.1.1 Build 3)  -->
  <rect x="172.09" y="19.1" width="21.03" height="21.03" transform="translate(151.98 212.06) rotate(-89.68)" style="fill:#eba1b1"/>
  <rect x="324.06" y="172.77" width="21.03" height="21.03" transform="translate(149.44 516.84) rotate(-89.68)" style="fill:#eba1b1"/>
  <rect x="170.4" y="324.74" width="21.03" height="21.03" transform="translate(-155.34 514.3) rotate(-89.68)" style="fill:#eba1b1"/>
  <rect x="18.43" y="171.07" width="21.03" height="21.03" transform="translate(-152.8 209.53) rotate(-89.68)" style="fill:#eba1b1"/>
</g><g style="fill:#766fb3; stroke:#766fb3"><!-- Generator: Adobe Illustrator 29.8.3, SVG Export Plug-In . SVG Version: 2.1.1 Build 3)  -->
  <rect x="145.93" y="145.93" width="71.65" height="71.65" transform="translate(-75.29 181.76) rotate(-45)" style="fill:#766fb3"/>
</g></svg>